<svg width="398" height="128" viewBox="0 0 398 128" fill="none" xmlns="http://www.w3.org/2000/svg">
<path fill-rule="evenodd" clip-rule="evenodd" d="M397.602 2L397.102 1L396.602 0L387.738 2.91386C365.891 9.96961 335.462 22.9801 306.073 42.1086C276.531 61.3369 247.976 86.7888 230.281 118.651L226 116.469L226.602 128L236.287 121.713L232.064 119.56C249.547 88.1133 277.798 62.8991 307.164 43.7849C336.367 24.7775 366.611 11.8432 388.309 4.8313L397.602 2Z" fill="white"/>
<path fill-rule="evenodd" clip-rule="evenodd" d="M0 2L0.5 1L1 0L9.8638 2.91386C31.7109 9.96961 62.1398 22.9801 91.5287 42.1086C121.071 61.3369 149.625 86.7888 167.321 118.651L171.602 116.469L171 128L161.315 121.713L165.538 119.56C148.055 88.1133 119.804 62.8991 90.4377 43.7849C61.235 24.7775 30.9912 11.8432 9.2932 4.8313L0 2Z" fill="white"/>
<path fill-rule="evenodd" clip-rule="evenodd" d="M198 3H199H200V13V117.5H204.774L199 127.5L193.227 117.5H198V13V3Z" fill="white"/>
</svg>
