<svg width="64" height="63" viewBox="0 0 64 63" fill="none" xmlns="http://www.w3.org/2000/svg">
<path fill-rule="evenodd" clip-rule="evenodd" d="M31.5563 1.01059C14.6874 1.01059 1.01239 14.6612 1.01239 31.5C1.01239 48.3388 14.6874 61.9894 31.5563 61.9894C48.4253 61.9894 62.1003 48.3388 62.1003 31.5C62.1003 14.6612 48.4253 1.01059 31.5563 1.01059ZM0 31.5C0 14.103 14.1282 0 31.5563 0C48.9844 0 63.1127 14.103 63.1127 31.5C63.1127 48.897 48.9844 63 31.5563 63C14.1282 63 0 48.897 0 31.5Z" fill="white"/>
<path fill-rule="evenodd" clip-rule="evenodd" d="M44.3695 7.25996C44.3695 7.25999 44.3695 7.26006 44.6595 7.16991C44.9494 7.07975 44.9495 7.0799 44.9496 7.0801L44.9503 7.08264L44.9525 7.08951C44.9543 7.0954 44.9568 7.10393 44.9601 7.11504C44.9668 7.13726 44.9763 7.1698 44.9884 7.21229C45.0125 7.29728 45.0468 7.42206 45.0878 7.58361C45.1698 7.90666 45.2792 8.3769 45.3896 8.96988C45.6104 10.1555 45.8362 11.8338 45.8566 13.8089C45.8975 17.7572 45.1181 22.9081 41.8222 27.6745C41.8029 27.7027 41.7786 27.7397 41.7491 27.7846C41.3147 28.446 39.7509 30.8268 36.5662 32.1586C34.5209 33.0138 32.6105 32.4659 31.499 31.8848L31.7809 31.3477C32.7955 31.8782 34.5095 32.3612 36.3315 31.5994C39.3408 30.3408 40.8168 28.0971 41.2462 27.4445C41.276 27.3991 41.3008 27.3615 41.3207 27.3323L41.3212 27.3316L41.3217 27.3309C44.5249 22.699 45.2893 17.6836 45.2492 13.8152C45.2292 11.8818 45.0082 10.2391 44.7924 9.08072C44.6846 8.50172 44.5781 8.04426 44.499 7.73261C44.4594 7.57681 44.4267 7.45749 44.404 7.37771C44.3927 7.33782 44.3839 7.30782 44.378 7.28808C44.375 7.27821 44.3728 7.27091 44.3714 7.26623L44.3698 7.26117L44.3695 7.25996Z" fill="white"/>
<path fill-rule="evenodd" clip-rule="evenodd" d="M44.6634 6.91992C44.6636 6.91987 44.6638 6.91982 44.7506 7.21034C44.8374 7.50087 44.8375 7.50085 44.8375 7.50084L44.8374 7.50089L44.8363 7.5012L44.8312 7.50274C44.8265 7.50417 44.8192 7.50641 44.8094 7.50948C44.7897 7.51561 44.7598 7.52505 44.7204 7.53792C44.6414 7.56366 44.5239 7.60311 44.3723 7.65727C44.0691 7.7656 43.6294 7.93271 43.0879 8.1665C42.0046 8.63423 40.5157 9.36807 38.8975 10.431C35.6599 12.5576 31.9183 15.9922 29.8576 21.2365C29.8435 21.2728 29.824 21.3199 29.8002 21.3775C29.4934 22.119 28.4731 24.5847 29.1031 27.7472L29.1032 27.7477C29.4847 29.6804 30.8403 30.8299 31.8557 31.3801L31.5659 31.913C30.4553 31.3112 28.9357 30.0353 28.5073 27.8651C27.8403 24.5165 28.926 21.8997 29.2353 21.1542C29.2589 21.0973 29.278 21.0513 29.2915 21.0167L29.2919 21.0156C31.4125 15.6185 35.2587 12.0953 38.5636 9.92444C40.2168 8.83857 41.7379 8.08873 42.8468 7.60997C43.4013 7.37052 43.8533 7.19868 44.1676 7.08637C44.3248 7.03022 44.4477 6.98893 44.5318 6.96151C44.5739 6.9478 44.6063 6.93755 44.6284 6.93065C44.6395 6.92719 44.6481 6.92458 44.654 6.92278L44.6608 6.92069L44.6634 6.91992Z" fill="white"/>
<path fill-rule="evenodd" clip-rule="evenodd" d="M17.9512 7.63377C17.9512 7.63378 17.9513 7.6338 18.033 7.34181C18.1148 7.04983 18.115 7.04987 18.1152 7.04993L18.1158 7.0501L18.1177 7.05065L18.1247 7.05262C18.1306 7.05431 18.1392 7.05678 18.1503 7.06004C18.1726 7.06656 18.2051 7.07624 18.2474 7.08922C18.332 7.11517 18.4555 7.15432 18.6135 7.20773C18.9297 7.31455 19.3844 7.47851 19.9428 7.7083C21.0594 8.16774 22.5926 8.89109 24.2637 9.94825C27.6045 12.0617 31.5097 15.5183 33.7226 20.8795L33.723 20.8804C33.7373 20.9153 33.7575 20.9616 33.7825 21.0189C34.1072 21.7636 35.2404 24.3624 34.6316 27.7189L34.6315 27.7193C34.2354 29.8889 32.738 31.1966 31.647 31.8098L31.349 31.2814C32.3435 30.7224 33.6808 29.5441 34.0339 27.6109C34.6087 24.4417 33.5441 21.9935 33.2218 21.2524C33.1965 21.1942 33.1758 21.1466 33.1608 21.1099C31.0103 15.9005 27.2112 12.5308 23.9386 10.4604C22.3029 9.42564 20.8021 8.71773 19.7113 8.2689C19.1661 8.04454 18.7237 7.88511 18.4188 7.78208C18.2663 7.73056 18.1483 7.69316 18.0689 7.6688C18.0292 7.65662 17.9992 7.6477 17.9794 7.64191C17.9695 7.63902 17.9622 7.63691 17.9575 7.63556L17.9524 7.63411L17.9513 7.63381L17.9512 7.63377Z" fill="white"/>
<path fill-rule="evenodd" clip-rule="evenodd" d="M17.8326 7.20644C17.8326 7.20624 17.8327 7.20609 18.1242 7.29122C18.4157 7.37634 18.4157 7.37627 18.4157 7.37625L18.4157 7.3764L18.4154 7.37745L18.4139 7.38253C18.4125 7.38724 18.4105 7.39457 18.4077 7.40448C18.4022 7.4243 18.3939 7.45443 18.3832 7.49449C18.362 7.5746 18.3313 7.69439 18.2945 7.85076C18.2208 8.16355 18.1224 8.62252 18.0247 9.20299C17.8293 10.3643 17.6371 12.0098 17.6509 13.9426C17.6784 17.8096 18.5302 22.8098 21.8129 27.3868C21.8356 27.4182 21.8644 27.4599 21.8994 27.5106C22.356 28.1716 23.8756 30.3719 26.8825 31.567C28.7149 32.2909 30.4197 31.7881 31.4229 31.2392L31.7149 31.771C30.6124 32.3741 28.7132 32.9426 26.6583 32.1306L26.6577 32.1304C23.4743 30.8651 21.8633 28.5279 21.4043 27.862C21.3697 27.8118 21.3417 27.7711 21.32 27.7411L21.3194 27.7403C17.9409 23.0301 17.0716 17.8942 17.0434 13.9469C17.0294 11.9724 17.2257 10.2912 17.4257 9.10254C17.5257 8.50804 17.6268 8.03624 17.7032 7.71199C17.7414 7.54985 17.7734 7.42456 17.796 7.33922C17.8074 7.29655 17.8164 7.26386 17.8226 7.24154C17.8257 7.23038 17.8281 7.22182 17.8298 7.21589L17.8318 7.20899L17.8324 7.20704L17.8326 7.20644Z" fill="white"/>
<path fill-rule="evenodd" clip-rule="evenodd" d="M31.8929 31.1161C31.8735 32.2644 32.2129 34.0123 33.7014 35.2981L33.7014 35.2981C36.1781 37.4383 38.8604 37.7505 39.6244 37.8394C39.674 37.8452 39.7156 37.85 39.7484 37.8543L39.75 37.8546L39.7516 37.8548C45.3399 38.6517 50.1781 37.0962 53.6275 35.3333C55.3514 34.4522 56.7248 33.5212 57.6663 32.8111C58.1369 32.4561 58.4992 32.1567 58.743 31.9468C58.8649 31.8419 58.9572 31.7593 59.0185 31.7034C59.0492 31.6755 59.0722 31.6542 59.0872 31.6402C59.0947 31.6331 59.1003 31.6279 59.1038 31.6245L59.1077 31.6209L59.1085 31.6201L59.1086 31.62C59.1086 31.62 59.1085 31.6201 59.3189 31.8387C59.5294 32.0573 59.5293 32.0574 59.5291 32.0576L59.5287 32.058L59.5272 32.0594L59.522 32.0643C59.5175 32.0686 59.511 32.0747 59.5025 32.0826C59.4856 32.0985 59.4607 32.1216 59.428 32.1513C59.3627 32.2109 59.2661 32.2972 59.1397 32.406C58.8869 32.6236 58.5145 32.9313 58.0325 33.2949C57.0687 34.0217 55.6656 34.9729 53.9043 35.873C50.3836 37.6724 45.4172 39.2749 39.667 38.4552C39.6351 38.451 39.5944 38.4463 39.5456 38.4407C38.769 38.3508 35.9248 38.0214 33.3038 35.7566C31.6336 34.3137 31.2643 32.3629 31.2855 31.106L31.8929 31.1161Z" fill="white"/>
<path fill-rule="evenodd" clip-rule="evenodd" d="M59.5403 31.7321C59.5404 31.7323 59.5405 31.7324 59.3189 31.9397C59.0973 32.147 59.0973 32.1471 59.0974 32.1471L59.0972 32.147L59.0965 32.1462L59.0928 32.1423C59.0895 32.1388 59.0842 32.1332 59.0771 32.1258C59.0628 32.111 59.041 32.0885 59.0118 32.059C58.9534 32 58.8656 31.9127 58.7494 31.8015C58.5168 31.579 58.1706 31.2609 57.7193 30.8817C56.8162 30.1231 55.4936 29.1211 53.8184 28.1507C50.4668 26.2091 45.7186 24.4018 40.1009 24.9047C40.0603 24.9085 40.0068 24.9123 39.9416 24.9169C39.1272 24.9748 36.4719 25.1636 33.9218 27.1362C32.3657 28.3467 31.9318 30.0656 31.9029 31.2096L31.2957 31.1943C31.3275 29.9332 31.8047 28.0141 33.5488 26.6577L33.5494 26.6572C36.2503 24.5677 39.0717 24.37 39.8896 24.3127C39.954 24.3082 40.006 24.3045 40.0446 24.3009L40.046 24.3008C45.8276 23.7831 50.7021 25.6443 54.1233 27.6262C55.8347 28.6176 57.186 29.6413 58.1104 30.4178C58.5727 30.8062 58.9286 31.1331 59.1696 31.3637C59.2902 31.479 59.3821 31.5703 59.4442 31.6332C59.4753 31.6646 59.4989 31.689 59.515 31.7057C59.5231 31.714 59.5292 31.7205 59.5335 31.725L59.5384 31.7302L59.5403 31.7321Z" fill="white"/>
<path fill-rule="evenodd" clip-rule="evenodd" d="M31.499 31.1153C32.6105 30.5341 34.5209 29.9863 36.5662 30.8415C39.7509 32.1733 41.3147 34.5541 41.7491 35.2155C41.7786 35.2604 41.8029 35.2974 41.8221 35.3255C45.1181 40.092 45.8975 45.2429 45.8566 49.1912C45.8362 51.1663 45.6104 52.8446 45.3896 54.0302C45.2792 54.6232 45.1698 55.0934 45.0878 55.4165C45.0468 55.578 45.0125 55.7028 44.9884 55.7878C44.9763 55.8303 44.9668 55.8628 44.9601 55.8851C44.9568 55.8962 44.9543 55.9047 44.9525 55.9106L44.9503 55.9175L44.9496 55.92C44.9495 55.9202 44.9494 55.9203 44.6595 55.8302C44.3695 55.74 44.3695 55.7401 44.3695 55.7401L44.3698 55.7389L44.3714 55.7339C44.3728 55.7292 44.375 55.7219 44.378 55.712C44.3839 55.6923 44.3927 55.6623 44.404 55.6224C44.4267 55.5426 44.4594 55.4233 44.499 55.2675C44.5781 54.9558 44.6846 54.4984 44.7924 53.9194C45.0082 52.761 45.2292 51.1183 45.2492 49.1849C45.2893 45.3165 44.5249 40.3011 41.3217 35.6692L41.3212 35.6685L41.3207 35.6678C41.3008 35.6386 41.276 35.601 41.2462 35.5556C40.8168 34.903 39.3408 32.6592 36.3315 31.4007C34.5095 30.6389 32.7955 31.1219 31.7809 31.6524L31.499 31.1153Z" fill="white"/>
<path fill-rule="evenodd" clip-rule="evenodd" d="M31.8557 31.6201C30.8403 32.1703 29.4847 33.3198 29.1032 35.2525L29.1031 35.253C28.4731 38.4155 29.4934 40.8812 29.8002 41.6227C29.824 41.6803 29.8435 41.7275 29.8576 41.7638C31.9183 47.008 35.6599 50.4426 38.8975 52.5692C40.5157 53.6321 42.0046 54.366 43.0879 54.8337C43.6294 55.0675 44.0691 55.2346 44.3723 55.3429C44.5239 55.3971 44.6414 55.4365 44.7204 55.4623C44.7598 55.4751 44.7897 55.4846 44.8094 55.4907C44.8192 55.4938 44.8265 55.496 44.8312 55.4975L44.8363 55.499L44.8374 55.4993L44.8375 55.4994C44.8375 55.4993 44.8374 55.4993 44.7506 55.7898C44.6638 56.0804 44.6636 56.0803 44.6634 56.0803L44.6628 56.0801L44.6609 56.0795L44.654 56.0774C44.6481 56.0756 44.6395 56.073 44.6284 56.0695C44.6063 56.0626 44.5739 56.0524 44.5318 56.0387C44.4477 56.0113 44.3248 55.97 44.1676 55.9138C43.8533 55.8015 43.4013 55.6297 42.8468 55.3902C41.7379 54.9115 40.2168 54.1616 38.5636 53.0757C35.2587 50.9049 31.4125 47.3817 29.2919 41.9846L29.2915 41.9835C29.278 41.9489 29.2589 41.9029 29.2353 41.846C28.926 41.1005 27.8403 38.4836 28.5073 35.135C28.9358 32.9648 30.4553 31.689 31.5659 31.0872L31.8557 31.6201Z" fill="white"/>
<path fill-rule="evenodd" clip-rule="evenodd" d="M31.647 31.1904C32.738 31.8037 34.2354 33.1113 34.6315 35.2809L34.6316 35.2813C35.2404 38.6379 34.1072 41.2367 33.7825 41.9813C33.7575 42.0386 33.7373 42.085 33.723 42.1198L33.7226 42.1207C31.5097 47.4819 27.6045 50.9385 24.2637 53.052C22.5926 54.1091 21.0594 54.8325 19.9428 55.2919C19.3844 55.5217 18.9297 55.6857 18.6135 55.7925C18.4555 55.8459 18.332 55.885 18.2474 55.911C18.2051 55.924 18.1726 55.9337 18.1503 55.9402C18.1392 55.9434 18.1306 55.9459 18.1247 55.9476L18.1177 55.9496L18.1158 55.9501L18.1152 55.9503C18.115 55.9503 18.1148 55.9504 18.033 55.6584C17.9513 55.3664 17.9512 55.3664 17.9512 55.3664L17.9513 55.3664L17.9524 55.3661L17.9575 55.3647C17.9622 55.3633 17.9695 55.3612 17.9794 55.3583C17.9992 55.3525 18.0292 55.3436 18.0689 55.3314C18.1483 55.3071 18.2663 55.2696 18.4188 55.2181C18.7237 55.1151 19.1661 54.9557 19.7113 54.7313C20.8021 54.2825 22.3029 53.5746 23.9386 52.5398C27.2112 50.4694 31.0103 47.0996 33.1608 41.8902C33.1758 41.8536 33.1965 41.806 33.2218 41.7479C33.5441 41.0067 34.6086 38.5586 34.0339 35.3894C33.6808 33.4562 32.3435 32.2778 31.349 31.7188L31.647 31.1904Z" fill="white"/>
<path fill-rule="evenodd" clip-rule="evenodd" d="M31.4229 31.7608C30.4196 31.2119 28.7147 30.7092 26.8821 31.4332C23.8755 32.6283 22.356 34.8285 21.8994 35.4895C21.8644 35.5402 21.8357 35.5818 21.813 35.6132C18.5302 40.1903 17.6784 45.1905 17.6509 49.0575C17.6371 50.9903 17.8293 52.6358 18.0247 53.7971C18.1224 54.3776 18.2208 54.8366 18.2945 55.1493C18.3313 55.3057 18.362 55.4255 18.3832 55.5056C18.3939 55.5457 18.4022 55.5758 18.4077 55.5956C18.4105 55.6055 18.4125 55.6129 18.4139 55.6176L18.4154 55.6226L18.4157 55.6239C18.4157 55.6238 18.4157 55.6238 18.1242 55.7089C17.8327 55.794 17.8326 55.7939 17.8326 55.7937L17.8324 55.7931L17.8318 55.7911L17.8298 55.7842C17.8281 55.7783 17.8257 55.7697 17.8226 55.7586C17.8164 55.7362 17.8074 55.7035 17.796 55.6609C17.7734 55.5755 17.7414 55.4502 17.7032 55.2881C17.6268 54.9639 17.5257 54.4921 17.4257 53.8976C17.2257 52.7089 17.0294 51.0277 17.0434 49.0532C17.0716 45.1059 17.9409 39.97 21.3194 35.2598L21.32 35.259C21.3417 35.229 21.3697 35.1883 21.4043 35.1381C21.8633 34.4722 23.4743 32.135 26.6577 30.8697L26.6583 30.8695C28.7132 30.0575 30.6124 30.626 31.7149 31.2291L31.4229 31.7608Z" fill="white"/>
<path fill-rule="evenodd" clip-rule="evenodd" d="M31.8422 31.106C31.8634 32.3629 31.4941 34.3138 29.8239 35.7566C27.2029 38.0214 24.3588 38.3508 23.5821 38.4407C23.5331 38.4464 23.4923 38.4511 23.4604 38.4553C17.7104 39.2748 12.7441 37.6723 9.22343 35.873C7.46219 34.9729 6.05901 34.0217 5.09528 33.2949C4.61328 32.9313 4.2408 32.6236 3.98801 32.406C3.8616 32.2972 3.76509 32.2109 3.69973 32.1513C3.66705 32.1216 3.64216 32.0985 3.62522 32.0826C3.61675 32.0747 3.61026 32.0686 3.60578 32.0643L3.60057 32.0594L3.59909 32.058L3.59864 32.0576C3.59849 32.0574 3.59838 32.0573 3.80881 31.8387C4.01924 31.6201 4.01919 31.62 4.01917 31.62L4.01928 31.6201L4.02007 31.6209L4.02391 31.6245C4.02747 31.6279 4.03302 31.6331 4.04055 31.6402C4.05559 31.6542 4.07853 31.6755 4.1092 31.7034C4.17055 31.7593 4.26281 31.8419 4.38472 31.9468C4.62856 32.1567 4.99086 32.4561 5.46147 32.8111C6.40296 33.5212 7.7763 34.4522 9.50026 35.3333C12.9497 37.0962 17.7879 38.6517 23.3761 37.8548L23.3777 37.8546L23.3793 37.8543C23.4122 37.85 23.4537 37.8452 23.5033 37.8394C24.2674 37.7505 26.9497 37.4383 29.4263 35.2981L29.4264 35.2981C30.9148 34.0123 31.2542 32.2644 31.2349 31.1161L31.8422 31.106Z" fill="white"/>
<path fill-rule="evenodd" clip-rule="evenodd" d="M4.03033 32.1471C4.03035 32.1471 4.0304 32.147 3.80878 31.9397C3.58716 31.7324 3.58727 31.7323 3.58741 31.7321L3.58784 31.7317L3.58924 31.7302L3.59418 31.725C3.59844 31.7205 3.60459 31.714 3.61264 31.7057C3.62873 31.689 3.65238 31.6646 3.68346 31.6332C3.74561 31.5703 3.83749 31.479 3.95803 31.3637C4.19911 31.1331 4.55498 30.8062 5.01729 30.4178C5.94163 29.6413 7.293 28.6176 9.00435 27.6262C12.4256 25.6443 17.3001 23.7831 23.0817 24.3008L23.0831 24.3009C23.1216 24.3045 23.1736 24.3082 23.2381 24.3127C24.056 24.37 26.8773 24.5677 29.5783 26.6572L29.5789 26.6577C31.3229 28.0141 31.8002 29.9332 31.832 31.1943L31.2248 31.2096C31.1959 30.0656 30.762 28.3466 29.2058 27.1362C26.6558 25.1636 24.0004 24.9748 23.1861 24.9169C23.1208 24.9123 23.0674 24.9085 23.0268 24.9047C17.409 24.4018 12.6609 26.2091 9.30925 28.1507C7.63411 29.1211 6.31147 30.1231 5.40842 30.8817C4.95703 31.2609 4.61087 31.579 4.37833 31.8015C4.26207 31.9127 4.17424 32 4.11589 32.059C4.08672 32.0885 4.06492 32.111 4.05063 32.1258C4.04348 32.1332 4.03821 32.1388 4.03483 32.1423L4.03119 32.1462L4.03033 32.1471Z" fill="white"/>
<path fill-rule="evenodd" clip-rule="evenodd" d="M31.1833 4.02034C31.1834 4.02036 31.1834 4.02041 31.3968 3.8047C31.6103 3.58898 31.6104 3.5891 31.6105 3.58924L31.611 3.58968L31.6124 3.59111L31.6175 3.59619C31.6219 3.60054 31.6282 3.60685 31.6363 3.6151C31.6526 3.63159 31.6764 3.65582 31.7071 3.68764C31.7684 3.75128 31.8573 3.8453 31.9696 3.96856C32.1941 4.21505 32.512 4.57858 32.8887 5.04989C33.6418 5.99223 34.6311 7.36704 35.5789 9.10024C37.4736 12.5651 39.2099 17.477 38.5424 23.2328C38.5384 23.2681 38.5341 23.3146 38.5288 23.3714C38.4544 24.1687 38.1902 26.9999 36.0053 29.656C34.603 31.3655 32.6591 31.7881 31.3968 31.7881V31.1818C32.5441 31.1818 34.2852 30.796 35.5354 29.2717L35.5357 29.2714C37.5994 26.7627 37.8505 24.0952 37.9248 23.3059C37.9302 23.2483 37.9347 23.2007 37.9389 23.1639L37.939 23.1632C38.5876 17.5701 36.902 12.7853 35.0457 9.39076C34.118 7.69424 33.1496 6.34865 32.4138 5.42803C32.0461 4.96785 31.7368 4.61425 31.5202 4.37648C31.4119 4.25761 31.3268 4.16773 31.2693 4.10799C31.2405 4.07812 31.2186 4.05579 31.2041 4.04114C31.1969 4.03382 31.1915 4.02842 31.188 4.02496L31.1842 4.02122L31.1835 4.02045L31.1833 4.02034Z" fill="white"/>
<path fill-rule="evenodd" clip-rule="evenodd" d="M31.2844 3.58924C31.2845 3.5891 31.2846 3.58898 31.498 3.8047C31.7115 4.02041 31.7115 4.02036 31.7115 4.02034L31.7106 4.02122L31.7069 4.02496C31.7034 4.02842 31.698 4.03382 31.6908 4.04114C31.6763 4.05579 31.6544 4.07812 31.6256 4.10799C31.5681 4.16773 31.483 4.25761 31.3747 4.37648C31.1581 4.61425 30.8488 4.96785 30.481 5.42803C29.7453 6.34865 28.7769 7.69424 27.8492 9.39076C25.9929 12.7853 24.3073 17.5701 24.9559 23.1632L24.956 23.1639C24.9602 23.2007 24.9646 23.2483 24.9701 23.3059C25.0444 24.0952 25.2954 26.7627 27.3592 29.2714L27.3595 29.2717C28.6097 30.796 30.3508 31.1818 31.498 31.1818V31.7881C30.2358 31.7881 28.2919 31.3655 26.8897 29.6561C24.7047 27 24.4405 24.1687 24.3661 23.3714C24.3608 23.3145 24.3565 23.2679 24.3524 23.2326C23.6851 17.4768 25.4213 12.5651 27.316 9.10024C28.2638 7.36704 29.2531 5.99223 30.0062 5.04989C30.3829 4.57858 30.7007 4.21505 30.9253 3.96856C31.0376 3.8453 31.1265 3.75128 31.1878 3.68764C31.2185 3.65582 31.2423 3.63159 31.2586 3.6151C31.2667 3.60685 31.273 3.60054 31.2774 3.59619L31.2825 3.59111L31.2839 3.58968L31.2844 3.58924Z" fill="white"/>
<path fill-rule="evenodd" clip-rule="evenodd" d="M31.7116 31.7557C31.1425 32.7571 30.62 34.4483 31.3357 36.2866L31.3357 36.2867C32.5148 39.3211 34.7262 40.8565 35.3641 41.2995C35.4078 41.3298 35.4441 41.355 35.4722 41.3752L35.4729 41.3758L35.4737 41.3763C40.0291 44.6984 45.0308 45.5935 48.9048 45.6547C50.841 45.6854 52.4913 45.5075 53.6566 45.3223C54.239 45.2297 54.6997 45.1353 55.0138 45.0644C55.1708 45.0289 55.2911 44.9994 55.3715 44.9788C55.4117 44.9685 55.442 44.9605 55.4619 44.9551C55.4677 44.9536 55.4727 44.9522 55.4767 44.9511C55.4796 44.9503 55.482 44.9497 55.4839 44.9491L55.4891 44.9477L55.4901 44.9474L55.4903 44.9474C55.4902 44.9474 55.4902 44.9474 55.573 45.2391C55.6558 45.5308 55.6557 45.5308 55.6555 45.5309L55.6549 45.531L55.6529 45.5316L55.646 45.5335C55.6425 45.5345 55.6382 45.5357 55.633 45.5371C55.6292 45.5381 55.6249 45.5393 55.6202 45.5405C55.5978 45.5466 55.565 45.5553 55.5221 45.5662C55.4364 45.5881 55.3106 45.6191 55.1478 45.6558C54.8222 45.7293 54.3486 45.8263 53.7521 45.9211C52.5594 46.1107 50.8732 46.2923 48.8952 46.261C44.941 46.1985 39.8039 45.2848 35.1162 41.8666C35.089 41.847 35.0534 41.8223 35.0101 41.7923C34.3633 41.3439 32.0173 39.7173 30.7694 36.5061M31.7116 31.7557L31.1832 31.4565ZM31.1832 31.4565C30.5577 32.5572 29.9665 34.4434 30.7694 36.506Z" fill="white"/>
<path fill-rule="evenodd" clip-rule="evenodd" d="M41.9814 29.4934C42.0319 29.5162 42.0734 29.5348 42.1055 29.5486C47.4503 31.8039 50.877 35.7326 52.9647 39.0863C54.009 40.7639 54.7205 42.3012 55.1713 43.42C55.3968 43.9796 55.5572 44.435 55.6616 44.7516C55.7138 44.9099 55.752 45.0336 55.7773 45.1182C55.7899 45.1605 55.7993 45.1931 55.8057 45.2154C55.8089 45.2266 55.8113 45.2351 55.8129 45.2411L55.8148 45.248L55.8154 45.25L55.8155 45.2506C55.8156 45.2508 55.8156 45.2509 55.5224 45.3301C55.4246 45.3565 55.3594 45.3742 55.3159 45.3859C55.2293 45.4093 55.2293 45.4094 55.2293 45.4094L55.229 45.4082L55.2275 45.4031C55.2262 45.3984 55.2242 45.391 55.2214 45.3811C55.2157 45.3613 55.207 45.3313 55.1952 45.2915C55.1714 45.2121 55.1349 45.0938 55.0846 44.9411C54.9839 44.6357 54.8279 44.1927 54.6077 43.6463C54.1673 42.5532 53.471 41.0485 52.4487 39.4063C50.4033 36.1206 47.0623 32.2982 41.8683 30.1068L41.8676 30.1065L41.867 30.1062C41.8336 30.092 41.7912 30.0729 41.7399 30.0499C41.0211 29.7268 38.5724 28.6262 35.3663 29.1764L35.3662 29.1764C33.4199 29.5097 32.2302 30.8348 31.6604 31.8276L31.1333 31.5263C31.7582 30.4373 33.0791 28.9529 35.2634 28.5788M41.9814 29.4934C41.2546 29.166 38.6575 27.9964 35.2635 28.5788Z" fill="white"/>
<path fill-rule="evenodd" clip-rule="evenodd" d="M20.8341 29.4934C20.7835 29.5162 20.742 29.5348 20.7099 29.5486C15.3651 31.8039 11.9384 35.7326 9.85077 39.0863C8.80644 40.7639 8.09493 42.3012 7.64412 43.42C7.41865 43.9796 7.25821 44.435 7.15384 44.7516C7.10165 44.9099 7.06347 45.0336 7.03817 45.1182C7.02552 45.1605 7.0161 45.1931 7.00975 45.2154C7.00658 45.2266 7.00417 45.2351 7.00252 45.2411L7.00061 45.248L7.00007 45.25L6.99991 45.2506C6.99986 45.2508 6.99981 45.2509 7.29299 45.3301C7.39086 45.3565 7.45605 45.3742 7.49948 45.3859C7.58616 45.4093 7.58615 45.4094 7.58615 45.4094L7.58648 45.4082L7.58789 45.4031C7.5892 45.3984 7.59126 45.391 7.59407 45.3811C7.59971 45.3613 7.6084 45.3313 7.62027 45.2915C7.64402 45.2121 7.68051 45.0938 7.73084 44.9411C7.83153 44.6357 7.98754 44.1927 8.20769 43.6463C8.64811 42.5532 9.34447 41.0485 10.3667 39.4063C12.4121 36.1206 15.7531 32.2982 20.9471 30.1068L20.9478 30.1065L20.9485 30.1062C20.9818 30.092 21.0242 30.0729 21.0755 30.0499C21.7944 29.7268 24.243 28.6262 27.4491 29.1764L27.4492 29.1764C29.3955 29.5097 30.5853 30.8348 31.155 31.8276L31.6821 31.5263C31.0573 30.4373 29.7363 28.9529 27.552 28.5788M20.8341 29.4934C21.5609 29.166 24.158 27.9964 27.5519 28.5788Z" fill="white"/>
<path fill-rule="evenodd" clip-rule="evenodd" d="M55.8094 18.5811C55.8094 18.5811 55.8094 18.5812 56.0996 18.6705C56.3898 18.7598 56.3898 18.76 56.3897 18.7602L56.3895 18.7608L56.3889 18.7627L56.3868 18.7696C56.3849 18.7755 56.3822 18.784 56.3787 18.795C56.3715 18.8171 56.361 18.8493 56.3469 18.8912C56.3186 18.9749 56.2761 19.0971 56.2184 19.2535C56.103 19.5663 55.9268 20.0158 55.6818 20.5671C55.1922 21.6696 54.4272 23.1809 53.3247 24.8209C51.1206 28.0995 47.5577 31.9056 42.1355 33.9712L42.1351 33.9714C42.0996 33.9848 42.0527 34.0038 41.9949 34.0273C41.2392 34.3336 38.6172 35.3965 35.2625 34.6921C33.1005 34.2431 31.8226 32.7169 31.2393 31.6053L31.7773 31.324C32.3076 32.3345 33.4593 33.6985 35.3869 34.0986L35.3876 34.0987C38.5549 34.7638 41.0241 33.7655 41.7752 33.4619C41.8339 33.4382 41.8821 33.4187 41.9193 33.4046C47.1878 31.3974 50.661 27.6949 52.8203 24.483C53.8995 22.8777 54.6481 21.3984 55.1266 20.3214C55.3657 19.783 55.5371 19.3457 55.6484 19.044C55.7041 18.8931 55.7447 18.7763 55.7712 18.6977C55.7844 18.6584 55.7942 18.6286 55.8005 18.609C55.8036 18.5992 55.806 18.592 55.8074 18.5873L55.809 18.5823L55.8093 18.5812L55.8094 18.5811Z" fill="white"/>
<path fill-rule="evenodd" clip-rule="evenodd" d="M56.243 18.4728C56.2431 18.4728 56.2433 18.4729 56.1502 18.7615C56.0572 19.0501 56.0572 19.0501 56.0573 19.0501L56.0561 19.0497L56.051 19.0481C56.0463 19.0467 56.0391 19.0444 56.0292 19.0414C56.0095 19.0353 55.9796 19.0262 55.9397 19.0146C55.8601 18.9912 55.741 18.9574 55.5854 18.9165C55.2742 18.8346 54.8172 18.7242 54.2386 18.6112C53.081 18.3852 51.4385 18.1496 49.503 18.1121C45.6303 18.0371 40.6011 18.7552 35.9311 21.9127C35.8984 21.9349 35.8552 21.963 35.8024 21.9973C35.124 22.4379 32.8845 23.8927 31.6155 26.8541C30.8424 28.6647 31.2983 30.3757 31.8285 31.3958L31.2894 31.6751C30.706 30.5527 30.19 28.6459 31.0568 26.6162L31.057 26.6159C32.4009 23.4791 34.781 21.9364 35.4638 21.4938C35.5159 21.46 35.5582 21.4326 35.5893 21.4114L35.5901 21.4109C40.3961 18.1614 45.5616 17.4293 49.5148 17.5059C51.4922 17.5442 53.1703 17.7848 54.3552 18.0161C54.9478 18.1318 55.4175 18.2453 55.7402 18.3302C55.9015 18.3726 56.0261 18.4079 56.111 18.4328C56.1534 18.4452 56.1859 18.4551 56.2081 18.4619C56.2192 18.4653 56.2277 18.468 56.2336 18.4698L56.2404 18.472L56.243 18.4728Z" fill="white"/>
<path fill-rule="evenodd" clip-rule="evenodd" d="M31.4576 31.212C32.7199 31.212 34.6638 31.6347 36.0661 33.3441C38.251 36.0002 38.5152 38.8315 38.5896 39.6288C38.5949 39.6857 38.5992 39.7322 38.6032 39.7676C39.2706 45.5233 37.5344 50.4351 35.6397 53.8999C34.6919 55.6331 33.7026 57.0079 32.9495 57.9503C32.5728 58.4216 32.2549 58.7851 32.0304 59.0316C31.9181 59.1549 31.8292 59.2489 31.7678 59.3125C31.7372 59.3443 31.7134 59.3686 31.6971 59.3851C31.689 59.3933 31.6827 59.3996 31.6783 59.404L31.6732 59.409L31.6713 59.4109C31.6712 59.4111 31.6711 59.4112 31.4576 59.1955C31.2442 58.9797 31.2442 58.9798 31.2441 58.9798L31.2443 58.9797L31.245 58.9789L31.2488 58.9752C31.2523 58.9717 31.2576 58.9663 31.2649 58.959C31.2794 58.9444 31.3013 58.922 31.3301 58.8922C31.3876 58.8324 31.4727 58.7425 31.581 58.6237C31.7976 58.3859 32.1069 58.0323 32.4746 57.5721C33.2104 56.6515 34.1788 55.3059 35.1065 53.6094C36.9627 50.2149 38.6484 45.4301 37.9998 39.837L37.9997 39.8362C37.9955 39.7994 37.991 39.7518 37.9856 39.6943C37.9113 38.905 37.6602 36.2375 35.5965 33.7288L35.5962 33.7285C34.346 32.2042 32.6049 31.8184 31.4576 31.8184V31.212Z" fill="white"/>
<path fill-rule="evenodd" clip-rule="evenodd" d="M31.5588 31.8184C30.4116 31.8184 28.6705 32.2042 27.4203 33.7285L27.42 33.7288C25.3562 36.2375 25.1051 38.905 25.0309 39.6943C25.0254 39.7518 25.021 39.7994 25.0168 39.8362L25.0167 39.837C24.3681 45.4301 26.0537 50.2149 27.91 53.6094C28.8377 55.3059 29.8061 56.6515 30.5418 57.5721C30.9096 58.0323 31.2189 58.3859 31.4355 58.6237C31.5438 58.7425 31.6288 58.8324 31.6864 58.8922C31.7152 58.922 31.7371 58.9444 31.7516 58.959C31.7588 58.9663 31.7642 58.9717 31.7677 58.9752L31.7714 58.9789L31.7722 58.9797L31.7723 58.9798C31.7723 58.9798 31.7723 58.9797 31.5588 59.1955C31.3454 59.4112 31.3453 59.4111 31.3452 59.4109L31.3433 59.409L31.3382 59.404C31.3354 59.4012 31.3319 59.3977 31.3277 59.3935C31.3252 59.3909 31.3224 59.3881 31.3194 59.3851C31.303 59.3686 31.2793 59.3443 31.2486 59.3125C31.1873 59.2489 31.0983 59.1549 30.9861 59.0316C30.7615 58.7851 30.4436 58.4216 30.067 57.9503C29.3139 57.0079 28.3245 55.6331 27.3768 53.8999C25.4821 50.4351 23.7459 45.5233 24.4132 39.7676C24.4172 39.7323 24.4216 39.6857 24.4269 39.6288C24.5013 38.8315 24.7655 36.0003 26.9504 33.3442C28.3526 31.6347 30.2966 31.212 31.5588 31.212V31.8184Z" fill="white"/>
<path fill-rule="evenodd" clip-rule="evenodd" d="M31.9444 31.4565C32.57 32.5572 33.1611 34.4434 32.3583 36.506C31.1104 39.7173 28.7644 41.3439 28.1175 41.7923C28.0743 41.8223 28.0386 41.847 28.0114 41.8666C23.3237 45.2848 18.1866 46.1985 14.2325 46.261C12.2545 46.2923 10.5683 46.1107 9.37558 45.9211C8.77904 45.8263 8.30543 45.7293 7.97987 45.6558C7.81708 45.6191 7.69126 45.5881 7.60555 45.5662C7.5627 45.5553 7.52986 45.5466 7.50745 45.5405C7.49624 45.5375 7.48764 45.5352 7.48169 45.5335L7.47475 45.5316L7.47219 45.5309C7.47199 45.5308 7.47184 45.5308 7.55467 45.2391C7.63751 44.9474 7.63744 44.9474 7.63741 44.9474L7.63756 44.9474L7.63862 44.9477L7.64373 44.9491C7.64845 44.9504 7.65582 44.9525 7.66577 44.9551C7.68568 44.9605 7.71594 44.9685 7.75617 44.9788C7.83662 44.9994 7.95691 45.0289 8.11391 45.0644C8.42795 45.1353 8.88868 45.2297 9.47112 45.3223C10.6363 45.5075 12.2867 45.6854 14.2229 45.6547C18.0969 45.5935 23.0986 44.6984 27.654 41.3763L27.6547 41.3758L27.6555 41.3752C27.6836 41.355 27.7199 41.3298 27.7636 41.2995C28.4015 40.8565 30.6128 39.3211 31.7919 36.2867L31.792 36.2866C32.5076 34.4483 31.9852 32.7571 31.4161 31.7557L31.9444 31.4565Z" fill="white"/>
<path fill-rule="evenodd" clip-rule="evenodd" d="M6.73828 18.7602C6.73822 18.76 6.73818 18.7598 7.02841 18.6705C7.31864 18.5812 7.31862 18.5811 7.31861 18.5811L7.31866 18.5812L7.31898 18.5823L7.32057 18.5873C7.32205 18.592 7.32436 18.5992 7.32752 18.609C7.33385 18.6286 7.34358 18.6584 7.35683 18.6977C7.38335 18.7763 7.42395 18.8931 7.47959 19.044C7.5909 19.3457 7.76232 19.783 8.00145 20.3214C8.47987 21.3984 9.22849 22.8777 10.3077 24.483C12.467 27.6949 15.9402 31.3974 21.2087 33.4046C21.2459 33.4187 21.2941 33.4382 21.3529 33.4619C22.1039 33.7655 24.5731 34.7638 27.7404 34.0987L27.7411 34.0986C29.6687 33.6985 30.8204 32.3345 31.3507 31.324L31.8887 31.6053C31.3054 32.7169 30.0275 34.2431 27.8655 34.6921C24.5108 35.3965 21.8888 34.3336 21.1331 34.0273C21.0753 34.0038 21.0284 33.9848 20.9929 33.9714L20.9925 33.9712C15.5703 31.9056 12.0074 28.0995 9.8033 24.8209C8.70077 23.1809 7.93585 21.6696 7.44615 20.5672C7.20123 20.0158 7.02496 19.5663 6.90957 19.2535C6.85188 19.0971 6.80939 18.9749 6.78115 18.8912C6.76703 18.8493 6.75647 18.8171 6.74935 18.795C6.74579 18.784 6.74308 18.7755 6.74123 18.7696L6.73907 18.7627L6.73847 18.7608L6.73828 18.7602Z" fill="white"/>
<path fill-rule="evenodd" clip-rule="evenodd" d="M7.07071 19.0501C7.07074 19.0501 7.07081 19.0501 6.97774 18.7615C6.88468 18.4729 6.88483 18.4728 6.88503 18.4728L6.88562 18.4726L6.88757 18.472L6.89442 18.4698C6.90031 18.468 6.90882 18.4653 6.91992 18.4619C6.9421 18.4551 6.97459 18.4452 7.01702 18.4328C7.10187 18.4079 7.22648 18.3726 7.38782 18.3302C7.71049 18.2453 8.18025 18.1318 8.77295 18.0161C9.95799 17.7848 11.6365 17.5442 13.6145 17.5059C17.5689 17.4293 22.7369 18.1614 27.5479 21.4108L27.5488 21.4114C27.5799 21.4326 27.6222 21.46 27.6743 21.4938C28.3571 21.9364 30.7372 23.4791 32.0811 26.6159L32.0813 26.6162C32.9481 28.6459 32.4321 30.5527 31.8487 31.6751L31.3096 31.3958C31.8398 30.3757 32.2958 28.6646 31.5225 26.854C30.2536 23.8927 28.014 22.4379 27.3357 21.9973C27.2829 21.963 27.2396 21.9349 27.2069 21.9126C22.5318 18.7552 17.5001 18.0371 13.6263 18.1121C11.6901 18.1496 10.0472 18.3852 8.88952 18.6112C8.31083 18.7242 7.85385 18.8346 7.54261 18.9165C7.38701 18.9574 7.26788 18.9912 7.18823 19.0146C7.14841 19.0262 7.11846 19.0353 7.09877 19.0414C7.08892 19.0444 7.08163 19.0467 7.07695 19.0481L7.07191 19.0497L7.07071 19.0501Z" fill="white"/>
<path fill-rule="evenodd" clip-rule="evenodd" d="M26.1364 30.9885C25.851 33.9778 28.0474 36.632 31.042 36.9168C34.0366 37.2016 36.6955 35.0092 36.9808 32.02C37.2662 29.0307 35.0698 26.3765 32.0752 26.0917C29.0806 25.8069 26.4217 27.9993 26.1364 30.9885ZM30.9459 37.9228C27.3947 37.5851 24.7902 34.4376 25.1285 30.8927C25.4669 27.3478 28.62 24.7479 32.1713 25.0857C35.7225 25.4234 38.327 28.5709 37.9887 32.1158C37.6503 35.6607 34.4972 38.2606 30.9459 37.9228Z" fill="white"/>
</svg>
