<svg width="210" height="64" viewBox="0 0 210 64" fill="none" xmlns="http://www.w3.org/2000/svg">
<path d="M77.0894 19.6821H73.9678V28.6732H77.0894C78.5947 28.6732 79.7916 28.2421 80.6799 27.3799C81.556 26.5178 82.0002 25.4586 82.0002 24.1777C82.0002 22.9091 81.556 21.8375 80.6799 20.9754C79.7916 20.1255 78.5947 19.6821 77.0894 19.6821ZM79.3597 26.2838C78.7798 26.8257 78.0025 27.0967 77.0401 27.0967H75.7445V21.2833H77.0277C77.9901 21.2833 78.7675 21.5542 79.3474 22.0962C79.9273 22.6381 80.2111 23.3401 80.2111 24.19C80.2234 25.0398 79.9273 25.7418 79.3597 26.2838Z" fill="white"/>
<path d="M86.4667 19.693L82.5554 28.6717H84.3692L85.2452 26.6765H89.3539L90.23 28.6717H92.1178L88.2065 19.693H86.4667ZM85.9609 25.0999L87.3181 22.0454L88.663 25.0999H85.9609Z" fill="white"/>
<path d="M97.2505 19.5074C95.8809 19.5074 94.7705 19.9508 93.8944 20.8499C93.0184 21.7491 92.5742 22.8575 92.5742 24.1754C92.5742 25.481 93.0184 26.5894 93.8944 27.4885C94.7705 28.3877 95.8933 28.8434 97.2505 28.8434C98.6201 28.8434 99.7306 28.3877 100.607 27.4885C101.483 26.5894 101.927 25.481 101.927 24.1754C101.927 22.8575 101.483 21.7491 100.607 20.8499C99.7306 19.9632 98.6078 19.5074 97.2505 19.5074ZM99.3234 26.3677C98.7682 26.9713 98.0772 27.2668 97.2505 27.2668C96.4238 27.2668 95.7329 26.9713 95.1776 26.3677C94.6224 25.7642 94.351 25.0376 94.351 24.1877C94.351 23.3256 94.6224 22.5866 95.1776 21.9954C95.7329 21.4042 96.4238 21.1086 97.2505 21.1086C98.0772 21.1086 98.7682 21.4042 99.3234 21.9954C99.8786 22.5866 100.15 23.3256 100.15 24.1877C100.15 25.0376 99.8663 25.7642 99.3234 26.3677Z" fill="white"/>
<path d="M110.527 21.0963C111.44 21.0963 112.168 21.4535 112.723 22.1801H114.623C114.253 21.3549 113.723 20.7021 113.019 20.2218C112.316 19.7538 111.489 19.5074 110.527 19.5074C109.194 19.5074 108.096 19.9508 107.208 20.8376C106.319 21.7244 105.875 22.8329 105.875 24.1754C105.875 25.5056 106.319 26.6264 107.208 27.5132C108.096 28.4 109.194 28.8434 110.527 28.8434C111.489 28.8434 112.316 28.6093 113.019 28.129C113.723 27.661 114.253 27.0082 114.623 26.1707H112.723C112.18 26.8974 111.452 27.2545 110.527 27.2545C109.7 27.2545 109.022 26.9589 108.479 26.3801C107.936 25.7889 107.664 25.0622 107.664 24.1754C107.664 23.2886 107.936 22.5619 108.479 21.9707C109.022 21.3919 109.713 21.0963 110.527 21.0963Z" fill="white"/>
<path d="M120.348 19.5074C118.979 19.5074 117.868 19.9508 116.992 20.8499C116.116 21.7491 115.672 22.8575 115.672 24.1754C115.672 25.481 116.116 26.5894 116.992 27.4885C117.868 28.3877 118.991 28.8434 120.348 28.8434C121.718 28.8434 122.828 28.3877 123.705 27.4885C124.581 26.5894 125.025 25.481 125.025 24.1754C125.025 22.8575 124.593 21.7491 123.705 20.8499C122.828 19.9632 121.706 19.5074 120.348 19.5074ZM122.421 26.3677C121.866 26.9713 121.175 27.2668 120.348 27.2668C119.522 27.2668 118.831 26.9713 118.276 26.3677C117.72 25.7642 117.449 25.0376 117.449 24.1877C117.449 23.3256 117.72 22.5866 118.276 21.9954C118.831 21.4042 119.522 21.1086 120.348 21.1086C121.175 21.1086 121.866 21.4042 122.421 21.9954C122.977 22.5866 123.248 23.3256 123.248 24.1877C123.248 25.0376 122.964 25.7642 122.421 26.3677Z" fill="white"/>
<path d="M133.02 25.9867L128.541 19.693H126.616V28.6717H128.393V22.3657L132.872 28.6717H134.797V19.693H133.02V25.9867Z" fill="white"/>
<path d="M138.646 21.4288C138.955 21.2071 139.387 21.0963 139.967 21.0963C140.46 21.0963 140.917 21.1948 141.324 21.3919C141.731 21.5889 142.015 21.8476 142.163 22.1801H143.964C143.717 21.4288 143.261 20.8007 142.582 20.2834C141.904 19.7661 141.04 19.5074 139.991 19.5074C138.905 19.5074 138.042 19.7661 137.388 20.2834C136.734 20.8007 136.413 21.4781 136.413 22.3156C136.413 23.0177 136.635 23.5965 137.067 24.0522C137.499 24.5079 138.165 24.7789 139.078 24.8528L140.62 25.0006C141.151 25.0499 141.534 25.173 141.78 25.3332C142.015 25.5056 142.138 25.7519 142.138 26.0721C142.138 26.4293 141.965 26.7003 141.62 26.922C141.274 27.1314 140.818 27.2422 140.25 27.2422C139.128 27.2422 138.375 26.885 137.968 26.1584H136.166C136.721 27.9319 138.091 28.8187 140.25 28.8187C141.41 28.8187 142.311 28.5478 142.952 28.0058C143.594 27.4639 143.927 26.7988 143.927 26.0106C143.927 25.3085 143.68 24.7296 143.187 24.2616C142.693 23.8059 142.015 23.5226 141.151 23.4364L139.498 23.2763C138.634 23.1778 138.214 22.8329 138.214 22.254C138.177 21.9338 138.338 21.6628 138.646 21.4288Z" fill="white"/>
<path d="M145.433 28.6717H151.75V27.0829H147.209V24.9645H151.651V23.3879H147.209V21.2695H151.75V19.693H145.433V28.6717Z" fill="white"/>
<path d="M159.992 25.9867L155.513 19.693H153.588V28.6717H155.365V22.3657L159.844 28.6717H161.769V19.693H159.992V25.9867Z" fill="white"/>
<path d="M165.618 21.4288C165.927 21.2071 166.371 21.0963 166.939 21.0963C167.432 21.0963 167.889 21.1948 168.296 21.3919C168.703 21.5889 168.987 21.8476 169.135 22.1801H170.936C170.69 21.4288 170.233 20.8007 169.554 20.2834C168.876 19.7661 168.012 19.5074 166.963 19.5074C165.878 19.5074 165.014 19.7661 164.36 20.2834C163.706 20.8007 163.385 21.4781 163.385 22.3156C163.385 23.0177 163.607 23.5965 164.039 24.0522C164.471 24.5079 165.137 24.7789 166.05 24.8528L167.593 25.0006C168.123 25.0499 168.518 25.173 168.752 25.3332C168.987 25.5056 169.11 25.7519 169.11 26.0721C169.11 26.4293 168.938 26.7003 168.592 26.922C168.247 27.1314 167.79 27.2422 167.222 27.2422C166.1 27.2422 165.347 26.885 164.94 26.1584H163.138C163.694 27.9319 165.063 28.8187 167.222 28.8187C168.382 28.8187 169.283 28.5478 169.925 28.0058C170.566 27.4639 170.887 26.7988 170.887 26.0106C170.887 25.3085 170.64 24.7296 170.147 24.2616C169.653 23.8059 168.975 23.5226 168.111 23.4364L166.457 23.2763C165.594 23.1778 165.174 22.8329 165.174 22.254C165.15 21.9338 165.31 21.6628 165.618 21.4288Z" fill="white"/>
<path d="M178.463 24.8905C178.463 25.6542 178.278 26.2454 177.895 26.6518C177.513 27.0583 176.982 27.2553 176.291 27.2553C175.6 27.2553 175.07 27.0583 174.687 26.6518C174.305 26.2454 174.107 25.6542 174.107 24.8905V19.6807H172.331V24.9029C172.331 26.1468 172.688 27.1198 173.404 27.8096C174.12 28.4993 175.082 28.8442 176.291 28.8442C177.488 28.8442 178.45 28.4993 179.166 27.8096C179.882 27.1198 180.24 26.1468 180.24 24.9029V19.6807H178.463V24.8905Z" fill="white"/>
<path d="M186.495 23.4611L184.842 23.3009C183.978 23.2024 183.559 22.8575 183.559 22.2787C183.559 21.9461 183.707 21.6628 184.015 21.4412C184.324 21.2195 184.756 21.1086 185.335 21.1086C185.829 21.1086 186.285 21.2071 186.693 21.4042C187.1 21.6013 187.384 21.8599 187.532 22.1925H189.333C189.086 21.4412 188.63 20.813 187.951 20.2957C187.273 19.7784 186.409 19.5198 185.36 19.5198C184.274 19.5198 183.411 19.7784 182.757 20.2957C182.103 20.813 181.782 21.4904 181.782 22.3279C181.782 23.03 182.004 23.6089 182.436 24.0646C182.868 24.5203 183.534 24.7912 184.447 24.8651L185.989 25.0129C186.52 25.0622 186.915 25.1854 187.149 25.3455C187.384 25.5179 187.507 25.7642 187.507 26.0845C187.507 26.4417 187.334 26.7126 186.989 26.9343C186.643 27.1437 186.187 27.2545 185.619 27.2545C184.496 27.2545 183.744 26.8974 183.337 26.1707H181.535C182.09 27.9443 183.46 28.8311 185.619 28.8311C186.779 28.8311 187.68 28.5601 188.321 28.0182C188.963 27.4762 189.284 26.8111 189.284 26.0229C189.284 25.3208 189.037 24.742 188.543 24.2739C188.05 23.8306 187.371 23.5473 186.495 23.4611Z" fill="white"/>
<path d="M80.6306 38.2925C80.791 37.96 80.865 37.5659 80.865 37.1101C80.865 36.4204 80.6306 35.8662 80.1494 35.4228C79.6682 34.9794 78.9772 34.7577 78.0642 34.7577H73.9678V43.7364H78.0642C78.9772 43.7364 79.6682 43.5147 80.1494 43.0836C80.6306 42.6526 80.865 42.086 80.865 41.3963C80.865 40.9406 80.7786 40.5464 80.6182 40.2016C80.4578 39.8567 80.1247 39.5365 79.6188 39.2409C80.137 38.9453 80.4825 38.6251 80.6306 38.2925ZM79.9396 41.2854C79.9396 42.3447 79.3227 42.8866 78.0888 42.8866H74.9178V39.6843H78.0888C78.6811 39.6843 79.1376 39.8198 79.4584 40.0907C79.7792 40.3494 79.9396 40.7558 79.9396 41.2854ZM78.0765 38.8221H74.9055V35.6075H78.0765C78.6688 35.6075 79.1253 35.743 79.4461 36.014C79.7669 36.2849 79.9396 36.6914 79.9396 37.221C79.9396 38.2925 79.3227 38.8221 78.0765 38.8221Z" fill="white"/>
<path d="M89.6131 40.0276C89.6131 41.0252 89.354 41.7765 88.8358 42.2815C88.3176 42.7988 87.602 43.0574 86.6642 43.0574C85.7388 43.0574 85.0109 42.7988 84.4926 42.2815C83.9744 41.7642 83.7153 41.0129 83.7153 40.0276V34.7561H82.7776V40.0522C82.7776 41.2839 83.1231 42.2322 83.8264 42.9096C84.5297 43.587 85.4674 43.9196 86.6519 43.9196C87.8364 43.9196 88.7741 43.587 89.4774 42.9096C90.1807 42.2322 90.5262 41.2839 90.5262 40.0522V34.7561H89.5885V40.0276H89.6131Z" fill="white"/>
<path d="M93.8822 35.9254C94.3264 35.5928 94.9063 35.4327 95.6466 35.4327C96.2759 35.4327 96.8311 35.5682 97.3123 35.8268C97.7935 36.0978 98.139 36.4427 98.3488 36.8614H99.3605C99.1385 36.2702 98.7189 35.7406 98.102 35.2726C97.4851 34.8046 96.6831 34.5706 95.696 34.5706C94.6472 34.5706 93.8205 34.8046 93.2036 35.2849C92.5867 35.7653 92.2782 36.3934 92.2782 37.194C92.2782 37.8344 92.488 38.364 92.9075 38.7828C93.327 39.2016 93.9439 39.4602 94.7706 39.5587L96.3129 39.7312C97.0286 39.8174 97.5591 39.9775 97.9046 40.2362C98.2501 40.4948 98.4228 40.8643 98.4228 41.3446C98.4228 41.8373 98.176 42.2437 97.6948 42.564C97.2136 42.8965 96.5967 43.0566 95.8441 43.0566C95.2148 43.0566 94.6472 42.9211 94.1537 42.6625C93.6601 42.3915 93.3023 42.059 93.0802 41.6402H92.0808C92.1795 41.9112 92.3152 42.1698 92.5003 42.4162C92.6854 42.6625 92.9198 42.9088 93.2036 43.1428C93.4874 43.3769 93.8699 43.5616 94.3264 43.7094C94.7829 43.8449 95.2888 43.9188 95.8564 43.9188C96.9545 43.9188 97.8182 43.6601 98.4352 43.1305C99.0521 42.6009 99.3605 41.9851 99.3605 41.2831C99.3605 40.6303 99.1385 40.1007 98.6819 39.6696C98.2254 39.2508 97.5961 38.9922 96.7818 38.8936L95.0791 38.7089C93.8452 38.5857 93.2283 38.0684 93.2283 37.157C93.216 36.652 93.438 36.2456 93.8822 35.9254Z" fill="white"/>
<path d="M102.038 34.7561H101.1V43.7348H102.038V34.7561Z" fill="white"/>
<path d="M111.526 42.4539L105.505 34.7438H104.444V43.7348H105.382V36.037L111.415 43.7348H112.464V34.7438H111.526V42.4539Z" fill="white"/>
<path d="M114.882 43.7348H120.867V42.885H115.82V39.6704H120.78V38.8205H115.82V35.6059H120.867V34.7438H114.882V43.7348Z" fill="white"/>
<path d="M123.976 35.9254C124.408 35.5928 125 35.4327 125.74 35.4327C126.37 35.4327 126.925 35.5682 127.406 35.8268C127.887 36.0978 128.233 36.4427 128.43 36.8614H129.442C129.22 36.2702 128.8 35.7406 128.183 35.2726C127.566 34.8046 126.764 34.5706 125.777 34.5706C124.729 34.5706 123.902 34.8046 123.285 35.2849C122.668 35.7653 122.36 36.3934 122.36 37.194C122.36 37.8344 122.569 38.364 122.989 38.7828C123.408 39.2016 124.025 39.4602 124.852 39.5587L126.394 39.7312C127.11 39.8174 127.64 39.9775 127.986 40.2362C128.331 40.4948 128.504 40.8643 128.504 41.3446C128.504 41.8373 128.257 42.2437 127.776 42.564C127.295 42.8965 126.678 43.0566 125.925 43.0566C125.296 43.0566 124.729 42.9211 124.235 42.6625C123.741 42.3915 123.384 42.059 123.162 41.6402H122.162C122.261 41.9112 122.397 42.1698 122.582 42.4162C122.767 42.6625 123.001 42.9088 123.285 43.1428C123.569 43.3769 123.951 43.5616 124.408 43.7094C124.864 43.8449 125.37 43.9188 125.938 43.9188C127.036 43.9188 127.9 43.6601 128.516 43.1305C129.133 42.6009 129.442 41.9851 129.442 41.2831C129.442 40.6303 129.22 40.1007 128.763 39.6696C128.307 39.2508 127.677 38.9922 126.863 38.8936L125.16 38.7089C123.927 38.5857 123.297 38.0684 123.297 37.157C123.322 36.652 123.544 36.2456 123.976 35.9254Z" fill="white"/>
<path d="M132.181 35.9254C132.613 35.5928 133.205 35.4327 133.945 35.4327C134.575 35.4327 135.13 35.5682 135.611 35.8268C136.092 36.0978 136.438 36.4427 136.635 36.8614H137.647C137.425 36.2702 137.005 35.7406 136.388 35.2726C135.771 34.8046 134.969 34.5706 133.982 34.5706C132.934 34.5706 132.107 34.8046 131.49 35.2849C130.873 35.7653 130.565 36.3934 130.565 37.194C130.565 37.8344 130.774 38.364 131.194 38.7828C131.613 39.2016 132.23 39.4602 133.057 39.5587L134.599 39.7312C135.315 39.8174 135.846 39.9775 136.191 40.2362C136.536 40.4948 136.709 40.8643 136.709 41.3446C136.709 41.8373 136.462 42.2437 135.981 42.564C135.5 42.8965 134.883 43.0566 134.13 43.0566C133.501 43.0566 132.934 42.9211 132.44 42.6625C131.947 42.3915 131.589 42.059 131.367 41.6402H130.367C130.466 41.9112 130.602 42.1698 130.787 42.4162C130.972 42.6625 131.206 42.9088 131.49 43.1428C131.774 43.3769 132.156 43.5616 132.613 43.7094C133.069 43.8449 133.575 43.9188 134.143 43.9188C135.241 43.9188 136.105 43.6601 136.722 43.1305C137.338 42.6009 137.647 41.9851 137.647 41.2831C137.647 40.6303 137.425 40.1007 136.968 39.6696C136.512 39.2508 135.883 38.9922 135.068 38.8936L133.365 38.7089C132.132 38.5857 131.502 38.0684 131.502 37.157C131.527 36.652 131.749 36.2456 132.181 35.9254Z" fill="white"/>
<path d="M149.739 42.4539L143.705 34.7438H142.656V43.7348H143.582V36.037L149.615 43.7348H150.677V34.7438H149.739V42.4539Z" fill="white"/>
<path d="M153.083 43.7348H159.079V42.885H154.02V39.6704H158.98V38.8205H154.02V35.6059H159.079V34.7438H153.083V43.7348Z" fill="white"/>
<path d="M160.35 35.6059H163.57V43.7348H164.496V35.6059H167.716V34.7438H160.35V35.6059Z" fill="white"/>
<path d="M178.895 42.6263L176.131 34.7438H174.934L172.257 42.6263L169.505 34.7438H168.481L171.64 43.7348H172.836L175.502 35.8276L178.29 43.7348H179.475L182.572 34.7438H181.572L178.895 42.6263Z" fill="white"/>
<path d="M187.963 34.5706C186.68 34.5706 185.594 35.014 184.706 35.9131C183.818 36.7998 183.374 37.9206 183.374 39.2385C183.374 40.5687 183.818 41.6772 184.706 42.564C185.594 43.4631 186.68 43.9065 187.963 43.9065C189.247 43.9065 190.332 43.4631 191.221 42.564C192.109 41.6649 192.553 40.5564 192.553 39.2385C192.553 37.9083 192.109 36.7998 191.221 35.9131C190.332 35.014 189.247 34.5706 187.963 34.5706ZM190.579 41.9851C189.888 42.6995 189.012 43.0566 187.951 43.0566C186.89 43.0566 186.014 42.6995 185.323 41.9851C184.632 41.2707 184.287 40.3593 184.287 39.2385C184.287 38.13 184.632 37.2186 185.323 36.5042C186.014 35.7899 186.89 35.4327 187.951 35.4327C189.012 35.4327 189.888 35.7899 190.579 36.5042C191.27 37.2186 191.616 38.13 191.616 39.2385C191.616 40.347 191.27 41.2584 190.579 41.9851Z" fill="white"/>
<path d="M200.783 39.1285C201.252 38.6481 201.487 38.0569 201.487 37.3303C201.487 36.5789 201.24 35.9631 200.746 35.4828C200.253 34.9901 199.512 34.7561 198.538 34.7561H194.404V43.7348H195.342V39.9044H197.538L200.463 43.7348H201.647L198.723 39.9044C199.623 39.8675 200.314 39.6088 200.783 39.1285ZM195.33 39.0546V35.6059H198.513C199.155 35.6059 199.648 35.7537 200.006 36.037C200.364 36.3203 200.537 36.7637 200.537 37.3303C200.537 37.9091 200.364 38.3402 200.006 38.6235C199.648 38.9068 199.155 39.0546 198.513 39.0546H195.33Z" fill="white"/>
<path d="M210 34.7438H208.668L204.115 38.759V34.7438H203.189V43.7348H204.115V39.6827L208.729 43.7348H210L204.978 39.2393L210 34.7438Z" fill="white"/>
<path fill-rule="evenodd" clip-rule="evenodd" d="M31.5563 2.00693C14.6874 2.00693 1.01239 15.6575 1.01239 32.4963C1.01239 49.3352 14.6874 62.9858 31.5563 62.9858C48.4253 62.9858 62.1003 49.3352 62.1003 32.4963C62.1003 15.6575 48.4253 2.00693 31.5563 2.00693ZM0 32.4963C0 15.0994 14.1282 0.996338 31.5563 0.996338C48.9844 0.996338 63.1127 15.0994 63.1127 32.4963C63.1127 49.8933 48.9844 63.9963 31.5563 63.9963C14.1282 63.9963 0 49.8933 0 32.4963Z" fill="white"/>
<path fill-rule="evenodd" clip-rule="evenodd" d="M44.3695 8.2563C44.3695 8.25633 44.3695 8.2564 44.6595 8.16624C44.9494 8.07609 44.9495 8.07624 44.9496 8.07643L44.9503 8.07898L44.9525 8.08584C44.9543 8.09174 44.9568 8.10027 44.9601 8.11138C44.9668 8.13359 44.9763 8.16614 44.9884 8.20863C45.0125 8.29361 45.0468 8.4184 45.0878 8.57994C45.1698 8.903 45.2792 9.37323 45.3896 9.96621C45.6104 11.1518 45.8362 12.8301 45.8566 14.8053C45.8975 18.7535 45.1181 23.9044 41.8222 28.6708C41.8029 28.699 41.7786 28.736 41.7491 28.781C41.3147 29.4423 39.7509 31.8231 36.5662 33.155C34.5209 34.0101 32.6105 33.4623 31.499 32.8811L31.7809 32.344C32.7955 32.8745 34.5095 33.3575 36.3315 32.5957C39.3408 31.3372 40.8168 29.0935 41.2462 28.4409C41.276 28.3955 41.3008 28.3578 41.3207 28.3287L41.3212 28.3279L41.3217 28.3272C44.5249 23.6953 45.2893 18.68 45.2492 14.8115C45.2292 12.8782 45.0082 11.2354 44.7924 10.0771C44.6846 9.49806 44.5781 9.0406 44.499 8.72895C44.4594 8.57314 44.4267 8.45383 44.404 8.37405C44.3927 8.33416 44.3839 8.30415 44.378 8.28442C44.375 8.27455 44.3728 8.26725 44.3714 8.26256L44.3698 8.2575L44.3695 8.2563Z" fill="white"/>
<path fill-rule="evenodd" clip-rule="evenodd" d="M44.6634 7.91626C44.6636 7.9162 44.6638 7.91616 44.7506 8.20668C44.8374 8.49721 44.8375 8.49719 44.8375 8.49718L44.8374 8.49722L44.8363 8.49754L44.8312 8.49908C44.8265 8.50051 44.8192 8.50275 44.8094 8.50581C44.7897 8.51195 44.7598 8.52139 44.7204 8.53426C44.6414 8.56 44.5239 8.59945 44.3723 8.65361C44.0691 8.76194 43.6294 8.92904 43.0879 9.16284C42.0046 9.63056 40.5157 10.3644 38.8975 11.4273C35.6599 13.554 31.9183 16.9886 29.8576 22.2328C29.8435 22.2691 29.824 22.3163 29.8002 22.3738C29.4934 23.1153 28.4731 25.5811 29.1031 28.7435L29.1032 28.744C29.4847 30.6767 30.8403 31.8262 31.8557 32.3765L31.5659 32.9094C30.4553 32.3075 28.9357 31.0317 28.5073 28.8614C27.8403 25.5129 28.926 22.896 29.2353 22.1505C29.2589 22.0936 29.278 22.0476 29.2915 22.013L29.2919 22.0119C31.4125 16.6148 35.2587 13.0916 38.5636 10.9208C40.2168 9.8349 41.7379 9.08507 42.8468 8.60631C43.4013 8.36686 43.8533 8.19501 44.1676 8.08271C44.3248 8.02655 44.4477 7.98527 44.5318 7.95785C44.5739 7.94414 44.6063 7.93389 44.6284 7.92699C44.6395 7.92353 44.6481 7.92091 44.654 7.91911L44.6608 7.91703L44.6634 7.91626Z" fill="white"/>
<path fill-rule="evenodd" clip-rule="evenodd" d="M17.9512 8.63011C17.9512 8.63012 17.9513 8.63014 18.033 8.33815C18.1148 8.04617 18.115 8.04621 18.1152 8.04627L18.1158 8.04644L18.1177 8.04699L18.1247 8.04896C18.1306 8.05065 18.1392 8.05312 18.1503 8.05638C18.1726 8.0629 18.2051 8.07258 18.2474 8.08556C18.332 8.11151 18.4555 8.15065 18.6135 8.20407C18.9297 8.31089 19.3844 8.47485 19.9428 8.70464C21.0594 9.16407 22.5926 9.88742 24.2637 10.9446C27.6045 13.058 31.5097 16.5147 33.7226 21.8758L33.723 21.8767C33.7373 21.9116 33.7575 21.9579 33.7825 22.0153C34.1072 22.7599 35.2404 25.3587 34.6316 28.7153L34.6315 28.7156C34.2354 30.8853 32.738 32.1929 31.647 32.8061L31.349 32.2778C32.3435 31.7187 33.6808 30.5404 34.0339 28.6072C34.6087 25.438 33.5441 22.9898 33.2218 22.2487C33.1965 22.1905 33.1758 22.1429 33.1608 22.1062C31.0103 16.8969 27.2112 13.5271 23.9386 11.4568C22.3029 10.422 20.8021 9.71407 19.7113 9.26523C19.1661 9.04088 18.7237 8.88145 18.4188 8.77842C18.2663 8.7269 18.1483 8.6895 18.0689 8.66514C18.0292 8.65296 17.9992 8.64404 17.9794 8.63825C17.9695 8.63536 17.9622 8.63324 17.9575 8.6319L17.9524 8.63045L17.9513 8.63015L17.9512 8.63011Z" fill="white"/>
<path fill-rule="evenodd" clip-rule="evenodd" d="M17.8326 8.20278C17.8326 8.20258 17.8327 8.20243 18.1242 8.28755C18.4157 8.37268 18.4157 8.37261 18.4157 8.37258L18.4157 8.37274L18.4154 8.37379L18.4139 8.37887C18.4125 8.38358 18.4105 8.39091 18.4077 8.40082C18.4022 8.42064 18.3939 8.45077 18.3832 8.49083C18.362 8.57094 18.3313 8.69073 18.2945 8.8471C18.2208 9.15988 18.1224 9.61886 18.0247 10.1993C17.8293 11.3606 17.6371 13.0062 17.6509 14.9389C17.6784 18.8059 18.5302 23.8061 21.8129 28.3831C21.8356 28.4146 21.8644 28.4562 21.8994 28.5069C22.356 29.168 23.8756 31.3683 26.8825 32.5634C28.7149 33.2872 30.4197 32.7844 31.4229 32.2356L31.7149 32.7673C30.6124 33.3705 28.7132 33.9389 26.6583 33.127L26.6577 33.1267C23.4743 31.8614 21.8633 29.5243 21.4043 28.8583C21.3697 28.8081 21.3417 28.7675 21.32 28.7374L21.3194 28.7366C17.9409 24.0264 17.0716 18.8905 17.0434 14.9432C17.0294 12.9687 17.2257 11.2875 17.4257 10.0989C17.5257 9.50437 17.6268 9.03257 17.7032 8.70832C17.7414 8.54619 17.7734 8.42089 17.796 8.33556C17.8074 8.29288 17.8164 8.2602 17.8226 8.23788C17.8257 8.22672 17.8281 8.21816 17.8298 8.21223L17.8318 8.20533L17.8324 8.20338L17.8326 8.20278Z" fill="white"/>
<path fill-rule="evenodd" clip-rule="evenodd" d="M31.8929 32.1125C31.8735 33.2607 32.2129 35.0087 33.7014 36.2944L33.7014 36.2945C36.1781 38.4346 38.8604 38.7468 39.6244 38.8357C39.674 38.8415 39.7156 38.8463 39.7484 38.8507L39.75 38.8509L39.7516 38.8511C45.3399 39.648 50.1781 38.0925 53.6275 36.3296C55.3514 35.4486 56.7248 34.5175 57.6663 33.8074C58.1369 33.4525 58.4992 33.1531 58.743 32.9431C58.8649 32.8382 58.9572 32.7557 59.0185 32.6998C59.0492 32.6718 59.0722 32.6506 59.0872 32.6365C59.0947 32.6295 59.1003 32.6242 59.1038 32.6208L59.1077 32.6172L59.1085 32.6164L59.1086 32.6163C59.1086 32.6164 59.1085 32.6164 59.3189 32.835C59.5294 33.0536 59.5293 33.0538 59.5291 33.0539L59.5287 33.0543L59.5272 33.0557L59.522 33.0607C59.5175 33.0649 59.511 33.071 59.5025 33.079C59.4856 33.0948 59.4607 33.1179 59.428 33.1477C59.3627 33.2072 59.2661 33.2935 59.1397 33.4023C58.8869 33.62 58.5145 33.9277 58.0325 34.2912C57.0687 35.0181 55.6656 35.9692 53.9043 36.8694C50.3836 38.6687 45.4172 40.2712 39.667 39.4516C39.6351 39.4474 39.5944 39.4427 39.5456 39.437C38.769 39.3471 35.9248 39.0178 33.3038 36.7529C31.6336 35.3101 31.2643 33.3593 31.2855 32.1023L31.8929 32.1125Z" fill="white"/>
<path fill-rule="evenodd" clip-rule="evenodd" d="M59.5403 32.7284C59.5404 32.7286 59.5405 32.7287 59.3189 32.936C59.0973 33.1433 59.0973 33.1434 59.0974 33.1434L59.0972 33.1433L59.0965 33.1425L59.0928 33.1387C59.0895 33.1351 59.0842 33.1296 59.0771 33.1222C59.0628 33.1073 59.041 33.0849 59.0118 33.0553C58.9534 32.9963 58.8656 32.909 58.7494 32.7978C58.5168 32.5753 58.1706 32.2573 57.7193 31.8781C56.8162 31.1194 55.4936 30.1174 53.8184 29.147C50.4668 27.2054 45.7186 25.3982 40.1009 25.901C40.0603 25.9048 40.0068 25.9086 39.9416 25.9132C39.1272 25.9711 36.4719 26.1599 33.9218 28.1325C32.3657 29.343 31.9318 31.0619 31.9029 32.2059L31.2957 32.1906C31.3275 30.9295 31.8047 29.0104 33.5488 27.654L33.5494 27.6535C36.2503 25.564 39.0717 25.3663 39.8896 25.309C39.954 25.3045 40.006 25.3009 40.0446 25.2973L40.046 25.2971C45.8276 24.7794 50.7021 26.6406 54.1233 28.6226C55.8347 29.614 57.186 30.6376 58.1104 31.4141C58.5727 31.8025 58.9286 32.1294 59.1696 32.36C59.2902 32.4753 59.3821 32.5666 59.4442 32.6295C59.4753 32.6609 59.4989 32.6853 59.515 32.702C59.5231 32.7104 59.5292 32.7168 59.5335 32.7213L59.5384 32.7265L59.5403 32.7284Z" fill="white"/>
<path fill-rule="evenodd" clip-rule="evenodd" d="M31.499 32.1116C32.6105 31.5305 34.5209 30.9826 36.5662 31.8378C39.7509 33.1697 41.3147 35.5504 41.7491 36.2118C41.7786 36.2567 41.8029 36.2937 41.8221 36.3219C45.1181 41.0883 45.8975 46.2392 45.8566 50.1875C45.8362 52.1626 45.6104 53.8409 45.3896 55.0266C45.2792 55.6195 45.1698 56.0898 45.0878 56.4128C45.0468 56.5744 45.0125 56.6992 44.9884 56.7841C44.9763 56.8266 44.9668 56.8592 44.9601 56.8814C44.9568 56.8925 44.9543 56.901 44.9525 56.9069L44.9503 56.9138L44.9496 56.9163C44.9495 56.9165 44.9494 56.9167 44.6595 56.8265C44.3695 56.7364 44.3695 56.7364 44.3695 56.7365L44.3698 56.7353L44.3714 56.7302C44.3728 56.7255 44.375 56.7182 44.378 56.7083C44.3839 56.6886 44.3927 56.6586 44.404 56.6187C44.4267 56.5389 44.4594 56.4196 44.499 56.2638C44.5781 55.9522 44.6846 55.4947 44.7924 54.9157C45.0082 53.7574 45.2292 52.1146 45.2492 50.1812C45.2893 46.3128 44.5249 41.2974 41.3217 36.6656L41.3212 36.6648L41.3207 36.6641C41.3008 36.635 41.276 36.5973 41.2462 36.5519C40.8168 35.8993 39.3408 33.6556 36.3315 32.3971C34.5095 31.6353 32.7955 32.1182 31.7809 32.6488L31.499 32.1116Z" fill="white"/>
<path fill-rule="evenodd" clip-rule="evenodd" d="M31.8557 32.6164C30.8403 33.1666 29.4847 34.3162 29.1032 36.2488L29.1031 36.2493C28.4731 39.4118 29.4934 41.8775 29.8002 42.6191C29.824 42.6766 29.8435 42.7238 29.8576 42.7601C31.9183 48.0043 35.6599 51.4389 38.8975 53.5656C40.5157 54.6285 42.0046 55.3623 43.0879 55.83C43.6294 56.0638 44.0691 56.2309 44.3723 56.3393C44.5239 56.3934 44.6414 56.4329 44.7204 56.4586C44.7598 56.4715 44.7897 56.4809 44.8094 56.4871C44.8192 56.4901 44.8265 56.4924 44.8312 56.4938L44.8363 56.4953L44.8374 56.4956L44.8375 56.4957C44.8375 56.4957 44.8374 56.4957 44.7506 56.7862C44.6638 57.0767 44.6636 57.0767 44.6634 57.0766L44.6628 57.0764L44.6609 57.0758L44.654 57.0738C44.6481 57.072 44.6395 57.0693 44.6284 57.0659C44.6063 57.059 44.5739 57.0487 44.5318 57.035C44.4477 57.0076 44.3248 56.9663 44.1676 56.9102C43.8533 56.7979 43.4013 56.626 42.8468 56.3866C41.7379 55.9078 40.2168 55.158 38.5636 54.0721C35.2587 51.9012 31.4125 48.378 29.2919 42.981L29.2915 42.9799C29.278 42.9453 29.2589 42.8993 29.2353 42.8424C28.926 42.0968 27.8403 39.48 28.5073 36.1313C28.9358 33.9612 30.4553 32.6853 31.5659 32.0835L31.8557 32.6164Z" fill="white"/>
<path fill-rule="evenodd" clip-rule="evenodd" d="M31.647 32.1868C32.738 32.8 34.2354 34.1076 34.6315 36.2773L34.6316 36.2776C35.2404 39.6342 34.1072 42.233 33.7825 42.9776C33.7575 43.035 33.7373 43.0813 33.723 43.1161L33.7226 43.1171C31.5097 48.4782 27.6045 51.9349 24.2637 54.0483C22.5926 55.1055 21.0594 55.8288 19.9428 56.2883C19.3844 56.518 18.9297 56.682 18.6135 56.7888C18.4555 56.8422 18.332 56.8814 18.2474 56.9073C18.2051 56.9203 18.1726 56.93 18.1503 56.9365C18.1392 56.9398 18.1306 56.9422 18.1247 56.9439L18.1177 56.9459L18.1158 56.9465L18.1152 56.9466C18.115 56.9467 18.1148 56.9467 18.033 56.6547C17.9513 56.3628 17.9512 56.3628 17.9512 56.3628L17.9513 56.3627L17.9524 56.3624L17.9575 56.361C17.9622 56.3596 17.9695 56.3575 17.9794 56.3546C17.9992 56.3488 18.0292 56.3399 18.0689 56.3278C18.1483 56.3034 18.2663 56.266 18.4188 56.2145C18.7237 56.1114 19.1661 55.952 19.7113 55.7277C20.8021 55.2788 22.3029 54.5709 23.9386 53.5361C27.2112 51.4658 31.0103 48.096 33.1608 42.8866C33.1758 42.8499 33.1965 42.8023 33.2218 42.7442C33.5441 42.0031 34.6086 39.5549 34.0339 36.3857C33.6808 34.4525 32.3435 33.2742 31.349 32.7151L31.647 32.1868Z" fill="white"/>
<path fill-rule="evenodd" clip-rule="evenodd" d="M31.4229 32.7572C30.4196 32.2083 28.7147 31.7055 26.8821 32.4295C23.8755 33.6247 22.356 35.8248 21.8994 36.4858C21.8644 36.5365 21.8357 36.5781 21.813 36.6096C18.5302 41.1866 17.6784 46.1868 17.6509 50.0539C17.6371 51.9866 17.8293 53.6322 18.0247 54.7934C18.1224 55.3739 18.2208 55.8329 18.2945 56.1457C18.3313 56.302 18.362 56.4218 18.3832 56.5019C18.3939 56.542 18.4022 56.5721 18.4077 56.5919C18.4105 56.6019 18.4125 56.6092 18.4139 56.6139L18.4154 56.619L18.4157 56.6202C18.4157 56.6202 18.4157 56.6201 18.1242 56.7052C17.8327 56.7903 17.8326 56.7902 17.8326 56.79L17.8324 56.7894L17.8318 56.7874L17.8298 56.7805C17.8281 56.7746 17.8257 56.766 17.8226 56.7549C17.8164 56.7326 17.8074 56.6999 17.796 56.6572C17.7734 56.5719 17.7414 56.4466 17.7032 56.2844C17.6268 55.9602 17.5257 55.4884 17.4257 54.8939C17.2257 53.7052 17.0294 52.024 17.0434 50.0495C17.0716 46.1023 17.9409 40.9664 21.3194 36.2561L21.32 36.2553C21.3417 36.2253 21.3697 36.1846 21.4043 36.1344C21.8633 35.4685 23.4743 33.1314 26.6577 31.866L26.6583 31.8658C28.7132 31.0539 30.6124 31.6223 31.7149 32.2255L31.4229 32.7572Z" fill="white"/>
<path fill-rule="evenodd" clip-rule="evenodd" d="M31.8422 32.1023C31.8634 33.3593 31.4941 35.3101 29.8239 36.753C27.2029 39.0178 24.3588 39.3471 23.5821 39.437C23.5331 39.4427 23.4923 39.4474 23.4604 39.4516C17.7104 40.2711 12.7441 38.6687 9.22343 36.8694C7.46219 35.9692 6.05901 35.0181 5.09528 34.2912C4.61328 33.9277 4.2408 33.62 3.98801 33.4023C3.8616 33.2935 3.76509 33.2072 3.69973 33.1477C3.66705 33.1179 3.64216 33.0948 3.62522 33.079C3.61675 33.071 3.61026 33.0649 3.60578 33.0607L3.60057 33.0557L3.59909 33.0543L3.59864 33.0539C3.59849 33.0538 3.59838 33.0536 3.80881 32.835C4.01924 32.6164 4.01919 32.6164 4.01917 32.6163L4.01928 32.6164L4.02007 32.6172L4.02391 32.6208C4.02747 32.6242 4.03302 32.6295 4.04055 32.6365C4.05559 32.6506 4.07853 32.6718 4.1092 32.6998C4.17055 32.7557 4.26281 32.8382 4.38472 32.9431C4.62856 33.1531 4.99086 33.4525 5.46147 33.8074C6.40296 34.5175 7.7763 35.4486 9.50026 36.3296C12.9497 38.0925 17.7879 39.648 23.3761 38.8511L23.3777 38.8509L23.3793 38.8507C23.4122 38.8463 23.4537 38.8415 23.5033 38.8357C24.2674 38.7468 26.9497 38.4346 29.4263 36.2945L29.4264 36.2944C30.9148 35.0087 31.2542 33.2607 31.2349 32.1125L31.8422 32.1023Z" fill="white"/>
<path fill-rule="evenodd" clip-rule="evenodd" d="M4.03033 33.1434C4.03035 33.1434 4.0304 33.1433 3.80878 32.936C3.58716 32.7287 3.58727 32.7286 3.58741 32.7284L3.58784 32.728L3.58924 32.7265L3.59418 32.7213C3.59844 32.7168 3.60459 32.7104 3.61264 32.702C3.62873 32.6853 3.65238 32.6609 3.68346 32.6295C3.74561 32.5666 3.83749 32.4753 3.95803 32.36C4.19911 32.1294 4.55498 31.8025 5.01729 31.4141C5.94163 30.6376 7.293 29.614 9.00435 28.6226C12.4256 26.6406 17.3001 24.7794 23.0817 25.2971L23.0831 25.2972C23.1216 25.3009 23.1736 25.3045 23.2381 25.309C24.056 25.3663 26.8773 25.564 29.5783 27.6535L29.5789 27.654C31.3229 29.0104 31.8002 30.9295 31.832 32.1906L31.2248 32.2059C31.1959 31.0619 30.762 29.343 29.2058 28.1325C26.6558 26.1599 24.0004 25.9711 23.1861 25.9132C23.1208 25.9086 23.0674 25.9048 23.0268 25.901C17.409 25.3982 12.6609 27.2054 9.30925 29.147C7.63411 30.1174 6.31147 31.1194 5.40842 31.8781C4.95703 32.2573 4.61087 32.5753 4.37833 32.7978C4.26207 32.909 4.17424 32.9963 4.11589 33.0553C4.08672 33.0849 4.06492 33.1073 4.05063 33.1222C4.04348 33.1296 4.03821 33.1351 4.03483 33.1387L4.03119 33.1425L4.03033 33.1434Z" fill="white"/>
<path fill-rule="evenodd" clip-rule="evenodd" d="M31.1833 5.01668C31.1834 5.0167 31.1834 5.01675 31.3968 4.80104C31.6103 4.58532 31.6104 4.58544 31.6105 4.58558L31.611 4.58602L31.6124 4.58745L31.6175 4.59252C31.6219 4.59688 31.6282 4.60319 31.6363 4.61144C31.6526 4.62793 31.6764 4.65215 31.7071 4.68397C31.7684 4.74761 31.8573 4.84164 31.9696 4.9649C32.1941 5.21139 32.512 5.57491 32.8887 6.04622C33.6418 6.98857 34.6311 8.36338 35.5789 10.0966C37.4736 13.5615 39.2099 18.4733 38.5424 24.2291C38.5384 24.2645 38.5341 24.3109 38.5288 24.3677C38.4544 25.165 38.1902 27.9962 36.0053 30.6523C34.603 32.3618 32.6591 32.7845 31.3968 32.7845V32.1781C32.5441 32.1781 34.2852 31.7923 35.5354 30.268L35.5357 30.2677C37.5994 27.759 37.8505 25.0915 37.9248 24.3022C37.9302 24.2447 37.9347 24.1971 37.9389 24.1603L37.939 24.1595C38.5876 18.5664 36.902 13.7816 35.0457 10.3871C34.118 8.69058 33.1496 7.34499 32.4138 6.42437C32.0461 5.96419 31.7368 5.61059 31.5202 5.37282C31.4119 5.25395 31.3268 5.16406 31.2693 5.10432C31.2405 5.07446 31.2186 5.05213 31.2041 5.03748C31.1969 5.03016 31.1915 5.02476 31.188 5.0213L31.1842 5.01756L31.1835 5.01679L31.1833 5.01668Z" fill="white"/>
<path fill-rule="evenodd" clip-rule="evenodd" d="M31.2844 4.58558C31.2845 4.58544 31.2846 4.58532 31.498 4.80104C31.7115 5.01675 31.7115 5.0167 31.7115 5.01668L31.7106 5.01756L31.7069 5.0213C31.7034 5.02476 31.698 5.03016 31.6908 5.03748C31.6763 5.05213 31.6544 5.07446 31.6256 5.10432C31.5681 5.16406 31.483 5.25395 31.3747 5.37282C31.1581 5.61059 30.8488 5.96419 30.481 6.42437C29.7453 7.34499 28.7769 8.69058 27.8492 10.3871C25.9929 13.7816 24.3073 18.5664 24.9559 24.1595L24.956 24.1603C24.9602 24.1971 24.9646 24.2447 24.9701 24.3022C25.0444 25.0915 25.2954 27.759 27.3592 30.2677L27.3595 30.268C28.6097 31.7923 30.3508 32.1781 31.498 32.1781V32.7845C30.2358 32.7845 28.2919 32.3618 26.8897 30.6524C24.7047 27.9963 24.4405 25.165 24.3661 24.3677C24.3608 24.3108 24.3565 24.2643 24.3524 24.2289C23.6851 18.4732 25.4213 13.5614 27.316 10.0966C28.2638 8.36338 29.2531 6.98857 30.0062 6.04622C30.3829 5.57491 30.7007 5.21139 30.9253 4.9649C31.0375 4.84164 31.1265 4.74761 31.1878 4.68397C31.2185 4.65215 31.2423 4.62793 31.2586 4.61144C31.2667 4.60319 31.273 4.59688 31.2774 4.59252L31.2825 4.58745L31.2839 4.58602L31.2844 4.58558Z" fill="white"/>
<path fill-rule="evenodd" clip-rule="evenodd" d="M31.7116 32.7521C31.1425 33.7534 30.62 35.4446 31.3357 37.2829L31.3357 37.2831C32.5148 40.3175 34.7262 41.8529 35.3641 42.2958C35.4078 42.3261 35.4441 42.3513 35.4722 42.3716L35.4729 42.3721L35.4737 42.3727C40.0291 45.6947 45.0308 46.5898 48.9048 46.6511C50.841 46.6817 52.4913 46.5039 53.6566 46.3186C54.239 46.226 54.6997 46.1317 55.0138 46.0607C55.1708 46.0253 55.2911 45.9957 55.3715 45.9751C55.4117 45.9649 55.442 45.9569 55.4619 45.9515C55.4677 45.9499 55.4727 45.9486 55.4767 45.9475C55.4796 45.9467 55.482 45.946 55.4839 45.9455L55.4891 45.9441L55.4901 45.9438L55.4903 45.9437C55.4902 45.9437 55.4902 45.9437 55.573 46.2354C55.6558 46.5271 55.6557 46.5272 55.6555 46.5272L55.6549 46.5274L55.6529 46.5279L55.646 46.5299C55.6425 46.5308 55.6382 46.532 55.633 46.5334C55.6292 46.5345 55.6249 46.5356 55.6202 46.5369C55.5978 46.5429 55.565 46.5516 55.5221 46.5626C55.4364 46.5845 55.3106 46.6154 55.1478 46.6522C54.8222 46.7257 54.3486 46.8226 53.7521 46.9174C52.5594 47.1071 50.8732 47.2886 48.8952 47.2574C44.941 47.1948 39.8039 46.2811 35.1162 42.8629C35.089 42.8433 35.0534 42.8186 35.0101 42.7887C34.3633 42.3402 32.0173 40.7137 30.7694 37.5024M31.7116 32.7521L31.1832 32.4529L31.7116 32.7521ZM31.1832 32.4529C30.5577 33.5536 29.9665 35.4398 30.7694 37.5023L31.1832 32.4529Z" fill="white"/>
<path fill-rule="evenodd" clip-rule="evenodd" d="M41.9814 30.4897C42.0319 30.5125 42.0734 30.5312 42.1055 30.5449C47.4503 32.8002 50.877 36.729 52.9647 40.0826C54.009 41.7603 54.7205 43.2975 55.1713 44.4164C55.3968 44.9759 55.5572 45.4313 55.6616 45.7479C55.7138 45.9062 55.752 46.0299 55.7773 46.1145C55.7899 46.1569 55.7993 46.1895 55.8057 46.2118C55.8089 46.2229 55.8113 46.2315 55.8129 46.2374L55.8148 46.2444L55.8154 46.2463L55.8155 46.2469C55.8156 46.2471 55.8156 46.2473 55.5224 46.3265C55.4246 46.3529 55.3594 46.3705 55.3159 46.3822C55.2293 46.4057 55.2293 46.4057 55.2293 46.4057L55.229 46.4045L55.2275 46.3994C55.2262 46.3947 55.2242 46.3874 55.2214 46.3774C55.2157 46.3576 55.207 46.3276 55.1952 46.2879C55.1714 46.2084 55.1349 46.0902 55.0846 45.9375C54.9839 45.6321 54.8279 45.189 54.6077 44.6426C54.1673 43.5495 53.471 42.0448 52.4487 40.4027C50.4033 37.1169 47.0623 33.2946 41.8683 31.1032L41.8676 31.1029L41.867 31.1026C41.8336 31.0883 41.7912 31.0692 41.7399 31.0462C41.0211 30.7231 38.5724 29.6225 35.3663 30.1727L35.3662 30.1727C33.4199 30.5061 32.2302 31.8311 31.6604 32.824L31.1333 32.5226C31.7582 31.4337 33.0791 29.9493 35.2634 29.5751M41.9814 30.4897C41.2546 30.1624 38.6575 28.9927 35.2635 29.5751L41.9814 30.4897Z" fill="white"/>
<path fill-rule="evenodd" clip-rule="evenodd" d="M20.8341 30.4897C20.7835 30.5125 20.742 30.5312 20.7099 30.5449C15.3651 32.8002 11.9384 36.729 9.85077 40.0826C8.80644 41.7603 8.09492 43.2975 7.64412 44.4164C7.41865 44.9759 7.25821 45.4313 7.15384 45.7479C7.10165 45.9062 7.06347 46.0299 7.03817 46.1145C7.02552 46.1569 7.0161 46.1895 7.00975 46.2118C7.00658 46.2229 7.00417 46.2315 7.00252 46.2374L7.00061 46.2444L7.00007 46.2463L6.99991 46.2469C6.99986 46.2471 6.99981 46.2473 7.29299 46.3265C7.39086 46.3529 7.45605 46.3705 7.49949 46.3822C7.58616 46.4057 7.58615 46.4057 7.58615 46.4057L7.58648 46.4045L7.58789 46.3994C7.5892 46.3947 7.59126 46.3874 7.59407 46.3774C7.59971 46.3576 7.6084 46.3276 7.62027 46.2879C7.64402 46.2084 7.68051 46.0902 7.73084 45.9375C7.83153 45.6321 7.98754 45.189 8.20769 44.6426C8.64812 43.5495 9.34447 42.0448 10.3667 40.4027C12.4121 37.1169 15.7531 33.2946 20.9471 31.1032L20.9478 31.1029L20.9485 31.1026C20.9818 31.0883 21.0242 31.0692 21.0755 31.0462C21.7944 30.7231 24.243 29.6225 27.4491 30.1727L27.4492 30.1727C29.3955 30.5061 30.5853 31.8311 31.155 32.824L31.6821 32.5226C31.0573 31.4337 29.7363 29.9493 27.552 29.5751M20.8341 30.4897C21.5609 30.1624 24.158 28.9927 27.5519 29.5751L20.8341 30.4897Z" fill="white"/>
<path fill-rule="evenodd" clip-rule="evenodd" d="M55.8094 19.5774C55.8094 19.5774 55.8094 19.5775 56.0996 19.6668C56.3898 19.7562 56.3898 19.7563 56.3897 19.7565L56.3895 19.7571L56.3889 19.7591L56.3868 19.7659C56.3849 19.7718 56.3822 19.7803 56.3787 19.7913C56.3715 19.8134 56.361 19.8456 56.3468 19.8875C56.3186 19.9712 56.2761 20.0935 56.2184 20.2498C56.103 20.5626 55.9268 21.0121 55.6819 21.5635C55.1922 22.6659 54.4272 24.1773 53.3247 25.8172C51.1206 29.0958 47.5577 32.902 42.1355 34.9676L42.1351 34.9677C42.0996 34.9812 42.0527 35.0002 41.9949 35.0236C41.2392 35.3299 38.6172 36.3929 35.2625 35.6884C33.1005 35.2394 31.8226 33.7133 31.2393 32.6017L31.7773 32.3203C32.3076 33.3308 33.4593 34.6948 35.3869 35.0949L35.3876 35.095C38.5549 35.7602 41.0241 34.7619 41.7752 34.4582C41.8339 34.4345 41.8821 34.415 41.9193 34.4009C47.1878 32.3937 50.661 28.6913 52.8203 25.4794C53.8995 23.8741 54.6481 22.3947 55.1266 21.3177C55.3657 20.7794 55.5371 20.342 55.6484 20.0403C55.7041 19.8895 55.7447 19.7726 55.7712 19.694C55.7844 19.6547 55.7942 19.625 55.8005 19.6054C55.8036 19.5956 55.806 19.5883 55.8074 19.5836L55.809 19.5786L55.8093 19.5775L55.8094 19.5774Z" fill="white"/>
<path fill-rule="evenodd" clip-rule="evenodd" d="M56.243 19.4691C56.2431 19.4692 56.2433 19.4692 56.1502 19.7578C56.0572 20.0464 56.0572 20.0464 56.0573 20.0465L56.0561 20.0461L56.051 20.0445C56.0463 20.043 56.0391 20.0407 56.0292 20.0377C56.0095 20.0316 55.9796 20.0226 55.9397 20.0109C55.8601 19.9875 55.741 19.9538 55.5854 19.9128C55.2742 19.831 54.8172 19.7205 54.2386 19.6075C53.081 19.3816 51.4385 19.146 49.503 19.1085C45.6303 19.0334 40.6011 19.7515 35.9311 22.909C35.8984 22.9312 35.8552 22.9594 35.8024 22.9936C35.124 23.4343 32.8845 24.8891 31.6155 27.8505C30.8424 29.661 31.2983 31.3721 31.8285 32.3921L31.2894 32.6714C30.706 31.549 30.19 29.6422 31.0568 27.6125L31.057 27.6122C32.4009 24.4755 34.781 22.9327 35.4638 22.4901C35.5159 22.4563 35.5582 22.4289 35.5893 22.4077L35.5901 22.4072C40.3961 19.1577 45.5616 18.4256 49.5148 18.5022C51.4922 18.5405 53.1703 18.7811 54.3552 19.0125C54.9478 19.1282 55.4175 19.2416 55.7402 19.3265C55.9015 19.3689 56.0261 19.4042 56.111 19.4291C56.1534 19.4416 56.1859 19.4514 56.2081 19.4582C56.2192 19.4616 56.2277 19.4643 56.2336 19.4661L56.2404 19.4683L56.243 19.4691Z" fill="white"/>
<path fill-rule="evenodd" clip-rule="evenodd" d="M31.4576 32.2084C32.7199 32.2084 34.6638 32.631 36.0661 34.3405C38.251 36.9966 38.5152 39.8278 38.5896 40.6251C38.5949 40.682 38.5992 40.7286 38.6032 40.764C39.2706 46.5197 37.5344 51.4314 35.6397 54.8963C34.6919 56.6295 33.7026 58.0043 32.9495 58.9466C32.5728 59.4179 32.2549 59.7814 32.0304 60.0279C31.9181 60.1512 31.8292 60.2452 31.7678 60.3089C31.7372 60.3407 31.7134 60.3649 31.6971 60.3814C31.689 60.3896 31.6827 60.396 31.6783 60.4003L31.6732 60.4054L31.6713 60.4073C31.6712 60.4074 31.6711 60.4075 31.4576 60.1918C31.2442 59.9761 31.2442 59.9761 31.2441 59.9762L31.2443 59.976L31.245 59.9753L31.2488 59.9715C31.2523 59.9681 31.2576 59.9627 31.2649 59.9554C31.2794 59.9407 31.3013 59.9184 31.3301 59.8885C31.3876 59.8288 31.4727 59.7389 31.581 59.62C31.7976 59.3822 32.1069 59.0286 32.4746 58.5685C33.2104 57.6478 34.1788 56.3023 35.1065 54.6057C36.9627 51.2112 38.6484 46.4264 37.9998 40.8333L37.9997 40.8326C37.9955 40.7958 37.991 40.7482 37.9856 40.6906C37.9113 39.9013 37.6602 37.2338 35.5965 34.7252L35.5962 34.7248C34.346 33.2005 32.6049 32.8147 31.4576 32.8147V32.2084Z" fill="white"/>
<path fill-rule="evenodd" clip-rule="evenodd" d="M31.5588 32.8147C30.4116 32.8147 28.6705 33.2005 27.4203 34.7248L27.42 34.7252C25.3562 37.2338 25.1051 39.9013 25.0309 40.6906C25.0254 40.7482 25.021 40.7958 25.0168 40.8326L25.0167 40.8333C24.3681 46.4264 26.0537 51.2112 27.91 54.6057C28.8377 56.3023 29.8061 57.6478 30.5418 58.5685C30.9096 59.0286 31.2189 59.3822 31.4355 59.62C31.5438 59.7389 31.6288 59.8288 31.6864 59.8885C31.7152 59.9184 31.7371 59.9407 31.7516 59.9554C31.7588 59.9627 31.7642 59.9681 31.7677 59.9715L31.7714 59.9753L31.7722 59.976L31.7723 59.9762C31.7723 59.9761 31.7723 59.9761 31.5588 60.1918C31.3454 60.4075 31.3453 60.4074 31.3452 60.4073L31.3433 60.4054L31.3382 60.4003C31.3354 60.3976 31.3319 60.3941 31.3277 60.3898C31.3252 60.3873 31.3224 60.3845 31.3194 60.3814C31.303 60.3649 31.2793 60.3407 31.2486 60.3089C31.1873 60.2452 31.0983 60.1512 30.9861 60.0279C30.7615 59.7814 30.4436 59.4179 30.067 58.9466C29.3139 58.0043 28.3245 56.6295 27.3768 54.8963C25.4821 51.4314 23.7459 46.5197 24.4132 40.764C24.4172 40.7286 24.4216 40.682 24.4269 40.6251C24.5013 39.8278 24.7655 36.9966 26.9504 34.3405C28.3526 32.631 30.2966 32.2084 31.5588 32.2084V32.8147Z" fill="white"/>
<path fill-rule="evenodd" clip-rule="evenodd" d="M31.9444 32.4529C32.57 33.5536 33.1611 35.4398 32.3583 37.5023C31.1104 40.7136 28.7644 42.3402 28.1175 42.7887C28.0743 42.8187 28.0386 42.8434 28.0114 42.863C23.3237 46.2811 18.1866 47.1948 14.2325 47.2574C12.2545 47.2886 10.5683 47.1071 9.37558 46.9174C8.77904 46.8226 8.30543 46.7257 7.97987 46.6522C7.81708 46.6154 7.69126 46.5845 7.60555 46.5626C7.5627 46.5516 7.52986 46.5429 7.50745 46.5369C7.49624 46.5339 7.48764 46.5315 7.48169 46.5299L7.47475 46.5279L7.47219 46.5272C7.47199 46.5272 7.47184 46.5271 7.55467 46.2354C7.63751 45.9437 7.63744 45.9437 7.63741 45.9437L7.63756 45.9438L7.63862 45.9441L7.64373 45.9455C7.64845 45.9468 7.65582 45.9488 7.66577 45.9515C7.68568 45.9569 7.71594 45.9649 7.75617 45.9751C7.83662 45.9957 7.95691 46.0253 8.11391 46.0607C8.42795 46.1317 8.88868 46.226 9.47112 46.3186C10.6363 46.5039 12.2867 46.6817 14.2229 46.6511C18.0969 46.5898 23.0986 45.6947 27.654 42.3727L27.6547 42.3721L27.6555 42.3716C27.6836 42.3513 27.7199 42.3261 27.7636 42.2958C28.4015 41.8529 30.6128 40.3175 31.7919 37.2831L31.792 37.2829C32.5076 35.4446 31.9852 33.7534 31.4161 32.7521L31.9444 32.4529Z" fill="white"/>
<path fill-rule="evenodd" clip-rule="evenodd" d="M6.73828 19.7565C6.73822 19.7563 6.73818 19.7562 7.02841 19.6668C7.31864 19.5775 7.31862 19.5774 7.31861 19.5774L7.31866 19.5775L7.31898 19.5786L7.32057 19.5836C7.32205 19.5883 7.32436 19.5956 7.32752 19.6054C7.33385 19.625 7.34358 19.6547 7.35683 19.694C7.38335 19.7726 7.42395 19.8895 7.47959 20.0403C7.5909 20.342 7.76232 20.7794 8.00145 21.3177C8.47987 22.3947 9.22849 23.8741 10.3077 25.4794C12.467 28.6913 15.9402 32.3937 21.2087 34.4009C21.2459 34.415 21.2941 34.4345 21.3529 34.4582C22.1039 34.7619 24.5731 35.7602 27.7404 35.095L27.7411 35.0949C29.6687 34.6948 30.8204 33.3308 31.3507 32.3203L31.8887 32.6017C31.3054 33.7133 30.0275 35.2394 27.8655 35.6884C24.5108 36.3929 21.8888 35.3299 21.1331 35.0236C21.0753 35.0002 21.0284 34.9812 20.9929 34.9677L20.9925 34.9676C15.5703 32.902 12.0074 29.0958 9.8033 25.8172C8.70077 24.1773 7.93585 22.6659 7.44615 21.5635C7.20123 21.0121 7.02496 20.5626 6.90957 20.2498C6.85188 20.0935 6.80939 19.9712 6.78115 19.8875C6.76703 19.8456 6.75647 19.8134 6.74935 19.7913C6.74579 19.7803 6.74308 19.7718 6.74123 19.7659L6.73907 19.7591L6.73847 19.7571L6.73828 19.7565Z" fill="white"/>
<path fill-rule="evenodd" clip-rule="evenodd" d="M7.07071 20.0465C7.07074 20.0464 7.07081 20.0464 6.97774 19.7578C6.88468 19.4692 6.88483 19.4692 6.88503 19.4691L6.88562 19.4689L6.88757 19.4683L6.89442 19.4661C6.90031 19.4643 6.90882 19.4616 6.91992 19.4582C6.9421 19.4514 6.97459 19.4416 7.01702 19.4291C7.10187 19.4042 7.22648 19.3689 7.38782 19.3265C7.71049 19.2416 8.18025 19.1282 8.77295 19.0125C9.95799 18.7811 11.6365 18.5405 13.6145 18.5022C17.5689 18.4256 22.7369 19.1577 27.5479 22.4071L27.5488 22.4077C27.5799 22.4289 27.6222 22.4563 27.6743 22.4901C28.3571 22.9327 30.7372 24.4755 32.0811 27.6122L32.0813 27.6125C32.9481 29.6422 32.4321 31.549 31.8487 32.6714L31.3096 32.3921C31.8398 31.372 32.2958 29.6609 31.5225 27.8503C30.2536 24.889 28.014 23.4343 27.3357 22.9936C27.2829 22.9593 27.2396 22.9312 27.2069 22.909C22.5318 19.7515 17.5001 19.0334 13.6263 19.1085C11.6901 19.146 10.0472 19.3816 8.88952 19.6076C8.31083 19.7205 7.85385 19.831 7.54261 19.9128C7.38701 19.9538 7.26788 19.9875 7.18823 20.0109C7.14841 20.0226 7.11846 20.0316 7.09877 20.0377C7.08892 20.0407 7.08163 20.043 7.07695 20.0445L7.07191 20.0461L7.07071 20.0465Z" fill="white"/>
<path fill-rule="evenodd" clip-rule="evenodd" d="M26.1364 31.9849C25.851 34.9741 28.0474 37.6283 31.042 37.9131C34.0366 38.1979 36.6955 36.0056 36.9808 33.0163C37.2662 30.027 35.0698 27.3729 32.0752 27.088C29.0806 26.8032 26.4217 28.9956 26.1364 31.9849ZM30.9459 38.9192C27.3947 38.5814 24.7902 35.4339 25.1285 31.889C25.4669 28.3441 28.62 25.7442 32.1713 26.082C35.7225 26.4198 38.327 29.5673 37.9887 33.1121C37.6503 36.657 34.4972 39.2569 30.9459 38.9192Z" fill="white"/>
</svg>
